%TF.GenerationSoftware,KiCad,Pcbnew,10.0.2*%
%TF.CreationDate,2026-06-04T11:42:46-04:00*%
%TF.ProjectId,solar_supplied_battery,736f6c61-725f-4737-9570-706c6965645f,rev?*%
%TF.SameCoordinates,Original*%
%TF.FileFunction,Copper,L2,Bot*%
%TF.FilePolarity,Positive*%
%FSLAX46Y46*%
G04 Gerber Fmt 4.6, Leading zero omitted, Abs format (unit mm)*
G04 Created by KiCad (PCBNEW 10.0.2) date 2026-06-04 11:42:46*
%MOMM*%
%LPD*%
G01*
G04 APERTURE LIST*
G04 Aperture macros list*
%AMRoundRect*
0 Rectangle with rounded corners*
0 $1 Rounding radius*
0 $2 $3 $4 $5 $6 $7 $8 $9 X,Y pos of 4 corners*
0 Add a 4 corners polygon primitive as box body*
4,1,4,$2,$3,$4,$5,$6,$7,$8,$9,$2,$3,0*
0 Add four circle primitives for the rounded corners*
1,1,$1+$1,$2,$3*
1,1,$1+$1,$4,$5*
1,1,$1+$1,$6,$7*
1,1,$1+$1,$8,$9*
0 Add four rect primitives between the rounded corners*
20,1,$1+$1,$2,$3,$4,$5,0*
20,1,$1+$1,$4,$5,$6,$7,0*
20,1,$1+$1,$6,$7,$8,$9,0*
20,1,$1+$1,$8,$9,$2,$3,0*%
G04 Aperture macros list end*
%TA.AperFunction,ComponentPad*%
%ADD10RoundRect,0.250000X-1.050000X-1.050000X1.050000X-1.050000X1.050000X1.050000X-1.050000X1.050000X0*%
%TD*%
%TA.AperFunction,ComponentPad*%
%ADD11C,2.600000*%
%TD*%
%TA.AperFunction,ComponentPad*%
%ADD12C,1.800000*%
%TD*%
%TA.AperFunction,ComponentPad*%
%ADD13O,1.500000X2.500000*%
%TD*%
%TA.AperFunction,ComponentPad*%
%ADD14RoundRect,0.250000X1.050000X-1.050000X1.050000X1.050000X-1.050000X1.050000X-1.050000X-1.050000X0*%
%TD*%
%TA.AperFunction,ComponentPad*%
%ADD15RoundRect,0.250000X1.050000X1.050000X-1.050000X1.050000X-1.050000X-1.050000X1.050000X-1.050000X0*%
%TD*%
%TA.AperFunction,ViaPad*%
%ADD16C,0.800000*%
%TD*%
G04 APERTURE END LIST*
D10*
%TO.P,J2,1,Pin_1_1*%
%TO.N,/BAT_P*%
X76305000Y-79017500D03*
D11*
%TO.P,J2,2,Pin_2_2*%
%TO.N,GNDD*%
X81385000Y-79017500D03*
%TD*%
D12*
%TO.P,SW1,1,A_1*%
%TO.N,Net-(SW1-A)*%
X89000000Y-82850000D03*
%TO.P,SW1,2,B_2*%
%TO.N,/BAT_P*%
X92000000Y-82850000D03*
%TO.P,SW1,3,C_3*%
%TO.N,unconnected-(SW1-C-Pad3)*%
X95000000Y-82850000D03*
D13*
%TO.P,SW1,4*%
%TO.N,N/C*%
X97800000Y-82850000D03*
%TO.P,SW1,5*%
X86200000Y-82850000D03*
%TD*%
D14*
%TO.P,J1,1,Pin_1_1*%
%TO.N,/OUT_P*%
X108267500Y-67820000D03*
D11*
%TO.P,J1,2,Pin_2_2*%
%TO.N,GNDD*%
X108267500Y-62740000D03*
%TD*%
D15*
%TO.P,J4,1,Pin_1_1*%
%TO.N,/SOLAR_P*%
X78195000Y-57657500D03*
D11*
%TO.P,J4,2,Pin_2_2*%
%TO.N,GNDD*%
X73115000Y-57657500D03*
%TD*%
D16*
%TO.N,GNDD*%
X87825000Y-54375000D03*
X91775000Y-69125000D03*
X97475000Y-68125000D03*
X66450000Y-82625000D03*
X103500000Y-65300000D03*
X113150000Y-79750000D03*
X93700000Y-63575000D03*
X101375000Y-79800000D03*
X98775000Y-71900000D03*
X75000000Y-67850000D03*
X113150000Y-54450000D03*
X66575000Y-54375000D03*
X101325000Y-54425000D03*
X66500000Y-67800000D03*
%TD*%
%TA.AperFunction,Conductor*%
%TO.N,GNDD*%
G36*
X116492539Y-50595185D02*
G01*
X116538294Y-50647989D01*
X116549500Y-50699500D01*
X116549500Y-85875500D01*
X116529815Y-85942539D01*
X116477011Y-85988294D01*
X116425500Y-85999500D01*
X63499500Y-85999500D01*
X63432461Y-85979815D01*
X63386706Y-85927011D01*
X63375500Y-85875500D01*
X63375500Y-82251577D01*
X84949500Y-82251577D01*
X84949500Y-83448422D01*
X84980290Y-83642826D01*
X85041117Y-83830029D01*
X85086065Y-83918243D01*
X85130476Y-84005405D01*
X85246172Y-84164646D01*
X85385354Y-84303828D01*
X85544595Y-84419524D01*
X85627455Y-84461743D01*
X85719970Y-84508882D01*
X85719972Y-84508882D01*
X85719975Y-84508884D01*
X85820317Y-84541487D01*
X85907173Y-84569709D01*
X86101578Y-84600500D01*
X86101583Y-84600500D01*
X86298422Y-84600500D01*
X86492826Y-84569709D01*
X86680025Y-84508884D01*
X86855405Y-84419524D01*
X87014646Y-84303828D01*
X87153828Y-84164646D01*
X87269524Y-84005405D01*
X87358884Y-83830025D01*
X87419709Y-83642826D01*
X87429023Y-83584022D01*
X87450500Y-83448422D01*
X87450500Y-83396151D01*
X87470185Y-83329112D01*
X87522989Y-83283357D01*
X87592147Y-83273413D01*
X87655703Y-83302438D01*
X87692431Y-83357833D01*
X87702103Y-83387603D01*
X87702104Y-83387606D01*
X87802187Y-83584025D01*
X87931752Y-83762358D01*
X87931756Y-83762363D01*
X88087636Y-83918243D01*
X88087641Y-83918247D01*
X88207605Y-84005405D01*
X88265978Y-84047815D01*
X88394375Y-84113237D01*
X88462393Y-84147895D01*
X88462396Y-84147896D01*
X88513949Y-84164646D01*
X88672049Y-84216015D01*
X88889778Y-84250500D01*
X88889779Y-84250500D01*
X89110221Y-84250500D01*
X89110222Y-84250500D01*
X89327951Y-84216015D01*
X89537606Y-84147895D01*
X89734022Y-84047815D01*
X89912365Y-83918242D01*
X90068242Y-83762365D01*
X90197815Y-83584022D01*
X90297895Y-83387606D01*
X90366015Y-83177951D01*
X90377527Y-83105266D01*
X90407456Y-83042133D01*
X90466767Y-83005201D01*
X90536630Y-83006199D01*
X90594863Y-83044809D01*
X90622473Y-83105267D01*
X90633985Y-83177952D01*
X90702103Y-83387603D01*
X90702104Y-83387606D01*
X90802187Y-83584025D01*
X90931752Y-83762358D01*
X90931756Y-83762363D01*
X91087636Y-83918243D01*
X91087641Y-83918247D01*
X91207605Y-84005405D01*
X91265978Y-84047815D01*
X91394375Y-84113237D01*
X91462393Y-84147895D01*
X91462396Y-84147896D01*
X91513949Y-84164646D01*
X91672049Y-84216015D01*
X91889778Y-84250500D01*
X91889779Y-84250500D01*
X92110221Y-84250500D01*
X92110222Y-84250500D01*
X92327951Y-84216015D01*
X92537606Y-84147895D01*
X92734022Y-84047815D01*
X92912365Y-83918242D01*
X93068242Y-83762365D01*
X93197815Y-83584022D01*
X93297895Y-83387606D01*
X93366015Y-83177951D01*
X93377527Y-83105266D01*
X93407456Y-83042133D01*
X93466767Y-83005201D01*
X93536630Y-83006199D01*
X93594863Y-83044809D01*
X93622473Y-83105267D01*
X93633985Y-83177952D01*
X93702103Y-83387603D01*
X93702104Y-83387606D01*
X93802187Y-83584025D01*
X93931752Y-83762358D01*
X93931756Y-83762363D01*
X94087636Y-83918243D01*
X94087641Y-83918247D01*
X94207605Y-84005405D01*
X94265978Y-84047815D01*
X94394375Y-84113237D01*
X94462393Y-84147895D01*
X94462396Y-84147896D01*
X94513949Y-84164646D01*
X94672049Y-84216015D01*
X94889778Y-84250500D01*
X94889779Y-84250500D01*
X95110221Y-84250500D01*
X95110222Y-84250500D01*
X95327951Y-84216015D01*
X95537606Y-84147895D01*
X95734022Y-84047815D01*
X95912365Y-83918242D01*
X96068242Y-83762365D01*
X96197815Y-83584022D01*
X96297895Y-83387606D01*
X96307569Y-83357833D01*
X96347006Y-83300158D01*
X96411364Y-83272959D01*
X96480211Y-83284873D01*
X96531687Y-83332117D01*
X96549500Y-83396151D01*
X96549500Y-83448422D01*
X96580290Y-83642826D01*
X96641117Y-83830029D01*
X96686065Y-83918243D01*
X96730476Y-84005405D01*
X96846172Y-84164646D01*
X96985354Y-84303828D01*
X97144595Y-84419524D01*
X97227455Y-84461743D01*
X97319970Y-84508882D01*
X97319972Y-84508882D01*
X97319975Y-84508884D01*
X97420317Y-84541487D01*
X97507173Y-84569709D01*
X97701578Y-84600500D01*
X97701583Y-84600500D01*
X97898422Y-84600500D01*
X98092826Y-84569709D01*
X98280025Y-84508884D01*
X98455405Y-84419524D01*
X98614646Y-84303828D01*
X98753828Y-84164646D01*
X98869524Y-84005405D01*
X98958884Y-83830025D01*
X99019709Y-83642826D01*
X99029023Y-83584022D01*
X99050500Y-83448422D01*
X99050500Y-82251577D01*
X99019709Y-82057173D01*
X98980870Y-81937641D01*
X98958884Y-81869975D01*
X98958882Y-81869972D01*
X98958882Y-81869970D01*
X98869523Y-81694594D01*
X98753828Y-81535354D01*
X98614646Y-81396172D01*
X98455405Y-81280476D01*
X98280029Y-81191117D01*
X98092826Y-81130290D01*
X97898422Y-81099500D01*
X97898417Y-81099500D01*
X97701583Y-81099500D01*
X97701578Y-81099500D01*
X97507173Y-81130290D01*
X97319970Y-81191117D01*
X97144594Y-81280476D01*
X97053741Y-81346485D01*
X96985354Y-81396172D01*
X96985352Y-81396174D01*
X96985351Y-81396174D01*
X96846174Y-81535351D01*
X96846174Y-81535352D01*
X96846172Y-81535354D01*
X96834002Y-81552105D01*
X96730476Y-81694594D01*
X96641117Y-81869970D01*
X96580290Y-82057173D01*
X96549500Y-82251577D01*
X96549500Y-82303848D01*
X96529815Y-82370887D01*
X96477011Y-82416642D01*
X96407853Y-82426586D01*
X96344297Y-82397561D01*
X96307569Y-82342167D01*
X96304501Y-82332726D01*
X96297895Y-82312394D01*
X96297894Y-82312393D01*
X96297895Y-82312393D01*
X96263237Y-82244375D01*
X96197815Y-82115978D01*
X96155091Y-82057173D01*
X96068247Y-81937641D01*
X96068243Y-81937636D01*
X95912363Y-81781756D01*
X95912358Y-81781752D01*
X95734025Y-81652187D01*
X95734024Y-81652186D01*
X95734022Y-81652185D01*
X95671096Y-81620122D01*
X95537606Y-81552104D01*
X95537603Y-81552103D01*
X95327952Y-81483985D01*
X95219086Y-81466742D01*
X95110222Y-81449500D01*
X94889778Y-81449500D01*
X94817201Y-81460995D01*
X94672047Y-81483985D01*
X94462396Y-81552103D01*
X94462393Y-81552104D01*
X94265974Y-81652187D01*
X94087641Y-81781752D01*
X94087636Y-81781756D01*
X93931756Y-81937636D01*
X93931752Y-81937641D01*
X93802187Y-82115974D01*
X93702104Y-82312393D01*
X93702103Y-82312396D01*
X93633985Y-82522047D01*
X93622473Y-82594732D01*
X93592544Y-82657867D01*
X93533232Y-82694798D01*
X93463370Y-82693800D01*
X93405137Y-82655190D01*
X93377527Y-82594732D01*
X93375985Y-82585001D01*
X93366015Y-82522049D01*
X93297895Y-82312394D01*
X93297895Y-82312393D01*
X93263237Y-82244375D01*
X93197815Y-82115978D01*
X93155091Y-82057173D01*
X93068247Y-81937641D01*
X93068243Y-81937636D01*
X92912363Y-81781756D01*
X92912358Y-81781752D01*
X92734025Y-81652187D01*
X92734024Y-81652186D01*
X92734022Y-81652185D01*
X92671096Y-81620122D01*
X92537606Y-81552104D01*
X92537603Y-81552103D01*
X92327952Y-81483985D01*
X92219086Y-81466742D01*
X92110222Y-81449500D01*
X91889778Y-81449500D01*
X91817201Y-81460995D01*
X91672047Y-81483985D01*
X91462396Y-81552103D01*
X91462393Y-81552104D01*
X91265974Y-81652187D01*
X91087641Y-81781752D01*
X91087636Y-81781756D01*
X90931756Y-81937636D01*
X90931752Y-81937641D01*
X90802187Y-82115974D01*
X90702104Y-82312393D01*
X90702103Y-82312396D01*
X90633985Y-82522047D01*
X90622473Y-82594732D01*
X90592544Y-82657867D01*
X90533232Y-82694798D01*
X90463370Y-82693800D01*
X90405137Y-82655190D01*
X90377527Y-82594732D01*
X90375985Y-82585001D01*
X90366015Y-82522049D01*
X90297895Y-82312394D01*
X90297895Y-82312393D01*
X90263237Y-82244375D01*
X90197815Y-82115978D01*
X90155091Y-82057173D01*
X90068247Y-81937641D01*
X90068243Y-81937636D01*
X89912363Y-81781756D01*
X89912358Y-81781752D01*
X89734025Y-81652187D01*
X89734024Y-81652186D01*
X89734022Y-81652185D01*
X89671096Y-81620122D01*
X89537606Y-81552104D01*
X89537603Y-81552103D01*
X89327952Y-81483985D01*
X89219086Y-81466742D01*
X89110222Y-81449500D01*
X88889778Y-81449500D01*
X88817201Y-81460995D01*
X88672047Y-81483985D01*
X88462396Y-81552103D01*
X88462393Y-81552104D01*
X88265974Y-81652187D01*
X88087641Y-81781752D01*
X88087636Y-81781756D01*
X87931756Y-81937636D01*
X87931752Y-81937641D01*
X87802187Y-82115974D01*
X87702105Y-82312393D01*
X87692431Y-82342167D01*
X87652993Y-82399842D01*
X87588634Y-82427040D01*
X87519788Y-82415125D01*
X87468312Y-82367881D01*
X87450500Y-82303848D01*
X87450500Y-82251577D01*
X87419709Y-82057173D01*
X87380870Y-81937641D01*
X87358884Y-81869975D01*
X87358882Y-81869972D01*
X87358882Y-81869970D01*
X87269523Y-81694594D01*
X87153828Y-81535354D01*
X87014646Y-81396172D01*
X86855405Y-81280476D01*
X86680029Y-81191117D01*
X86492826Y-81130290D01*
X86298422Y-81099500D01*
X86298417Y-81099500D01*
X86101583Y-81099500D01*
X86101578Y-81099500D01*
X85907173Y-81130290D01*
X85719970Y-81191117D01*
X85544594Y-81280476D01*
X85453741Y-81346485D01*
X85385354Y-81396172D01*
X85385352Y-81396174D01*
X85385351Y-81396174D01*
X85246174Y-81535351D01*
X85246174Y-81535352D01*
X85246172Y-81535354D01*
X85234002Y-81552105D01*
X85130476Y-81694594D01*
X85041117Y-81869970D01*
X84980290Y-82057173D01*
X84949500Y-82251577D01*
X63375500Y-82251577D01*
X63375500Y-77917483D01*
X74504500Y-77917483D01*
X74504500Y-80117501D01*
X74504501Y-80117518D01*
X74515000Y-80220296D01*
X74515001Y-80220299D01*
X74563885Y-80367819D01*
X74570186Y-80386834D01*
X74662288Y-80536156D01*
X74786344Y-80660212D01*
X74935666Y-80752314D01*
X75102203Y-80807499D01*
X75204991Y-80818000D01*
X77405008Y-80817999D01*
X77507797Y-80807499D01*
X77674334Y-80752314D01*
X77823656Y-80660212D01*
X77947712Y-80536156D01*
X78039814Y-80386834D01*
X78094999Y-80220297D01*
X78105500Y-80117509D01*
X78105499Y-78899514D01*
X79585000Y-78899514D01*
X79585000Y-79135485D01*
X79615799Y-79369414D01*
X79676870Y-79597337D01*
X79767160Y-79815319D01*
X79767165Y-79815328D01*
X79885144Y-80019671D01*
X79885145Y-80019672D01*
X79947721Y-80101223D01*
X80783958Y-79264987D01*
X80808978Y-79325390D01*
X80880112Y-79431851D01*
X80970649Y-79522388D01*
X81077110Y-79593522D01*
X81137511Y-79618541D01*
X80301275Y-80454777D01*
X80382827Y-80517354D01*
X80382828Y-80517355D01*
X80587171Y-80635334D01*
X80587180Y-80635339D01*
X80805163Y-80725629D01*
X80805161Y-80725629D01*
X81033085Y-80786700D01*
X81267014Y-80817499D01*
X81267029Y-80817500D01*
X81502971Y-80817500D01*
X81502985Y-80817499D01*
X81736914Y-80786700D01*
X81964837Y-80725629D01*
X82182819Y-80635339D01*
X82182828Y-80635334D01*
X82387181Y-80517350D01*
X82468723Y-80454779D01*
X82468723Y-80454776D01*
X81632487Y-79618541D01*
X81692890Y-79593522D01*
X81799351Y-79522388D01*
X81889888Y-79431851D01*
X81961022Y-79325390D01*
X81986041Y-79264987D01*
X82822276Y-80101223D01*
X82822279Y-80101223D01*
X82884850Y-80019681D01*
X83002834Y-79815328D01*
X83002839Y-79815319D01*
X83093129Y-79597337D01*
X83154200Y-79369414D01*
X83184999Y-79135485D01*
X83185000Y-79135471D01*
X83185000Y-78899528D01*
X83184999Y-78899514D01*
X83154200Y-78665585D01*
X83093129Y-78437662D01*
X83002839Y-78219680D01*
X83002834Y-78219671D01*
X82884855Y-78015328D01*
X82884854Y-78015327D01*
X82822277Y-77933775D01*
X81986041Y-78770011D01*
X81961022Y-78709610D01*
X81889888Y-78603149D01*
X81799351Y-78512612D01*
X81692890Y-78441478D01*
X81632488Y-78416458D01*
X82468723Y-77580221D01*
X82387172Y-77517645D01*
X82387171Y-77517644D01*
X82182828Y-77399665D01*
X82182819Y-77399660D01*
X81964836Y-77309370D01*
X81964838Y-77309370D01*
X81736914Y-77248299D01*
X81502985Y-77217500D01*
X81267014Y-77217500D01*
X81033085Y-77248299D01*
X80805162Y-77309370D01*
X80587180Y-77399660D01*
X80587171Y-77399665D01*
X80382828Y-77517644D01*
X80382818Y-77517650D01*
X80301275Y-77580220D01*
X80301275Y-77580221D01*
X81137512Y-78416458D01*
X81077110Y-78441478D01*
X80970649Y-78512612D01*
X80880112Y-78603149D01*
X80808978Y-78709610D01*
X80783958Y-78770011D01*
X79947721Y-77933775D01*
X79947720Y-77933775D01*
X79885150Y-78015318D01*
X79885144Y-78015328D01*
X79767165Y-78219671D01*
X79767160Y-78219680D01*
X79676870Y-78437662D01*
X79615799Y-78665585D01*
X79585000Y-78899514D01*
X78105499Y-78899514D01*
X78105499Y-77917492D01*
X78094999Y-77814703D01*
X78039814Y-77648166D01*
X77947712Y-77498844D01*
X77823656Y-77374788D01*
X77674334Y-77282686D01*
X77507797Y-77227501D01*
X77507795Y-77227500D01*
X77405010Y-77217000D01*
X75204998Y-77217000D01*
X75204981Y-77217001D01*
X75102203Y-77227500D01*
X75102200Y-77227501D01*
X74935668Y-77282685D01*
X74935663Y-77282687D01*
X74786342Y-77374789D01*
X74662289Y-77498842D01*
X74570187Y-77648163D01*
X74570185Y-77648168D01*
X74563886Y-77667178D01*
X74515001Y-77814703D01*
X74515001Y-77814704D01*
X74515000Y-77814704D01*
X74504500Y-77917483D01*
X63375500Y-77917483D01*
X63375500Y-66719983D01*
X106467000Y-66719983D01*
X106467000Y-68920001D01*
X106467001Y-68920018D01*
X106477500Y-69022796D01*
X106477501Y-69022799D01*
X106532685Y-69189331D01*
X106532686Y-69189334D01*
X106624788Y-69338656D01*
X106748844Y-69462712D01*
X106898166Y-69554814D01*
X107064703Y-69609999D01*
X107167491Y-69620500D01*
X109367508Y-69620499D01*
X109470297Y-69609999D01*
X109636834Y-69554814D01*
X109786156Y-69462712D01*
X109910212Y-69338656D01*
X110002314Y-69189334D01*
X110057499Y-69022797D01*
X110068000Y-68920009D01*
X110067999Y-66719992D01*
X110057499Y-66617203D01*
X110002314Y-66450666D01*
X109910212Y-66301344D01*
X109786156Y-66177288D01*
X109636834Y-66085186D01*
X109470297Y-66030001D01*
X109470295Y-66030000D01*
X109367510Y-66019500D01*
X107167498Y-66019500D01*
X107167481Y-66019501D01*
X107064703Y-66030000D01*
X107064700Y-66030001D01*
X106898168Y-66085185D01*
X106898163Y-66085187D01*
X106748842Y-66177289D01*
X106624789Y-66301342D01*
X106532687Y-66450663D01*
X106532686Y-66450666D01*
X106477501Y-66617203D01*
X106477501Y-66617204D01*
X106477500Y-66617204D01*
X106467000Y-66719983D01*
X63375500Y-66719983D01*
X63375500Y-62622014D01*
X106467500Y-62622014D01*
X106467500Y-62857985D01*
X106498299Y-63091914D01*
X106559370Y-63319837D01*
X106649660Y-63537819D01*
X106649665Y-63537828D01*
X106767644Y-63742171D01*
X106767645Y-63742172D01*
X106830221Y-63823723D01*
X107666458Y-62987487D01*
X107691478Y-63047890D01*
X107762612Y-63154351D01*
X107853149Y-63244888D01*
X107959610Y-63316022D01*
X108020011Y-63341041D01*
X107183775Y-64177277D01*
X107265327Y-64239854D01*
X107265328Y-64239855D01*
X107469671Y-64357834D01*
X107469680Y-64357839D01*
X107687663Y-64448129D01*
X107687661Y-64448129D01*
X107915585Y-64509200D01*
X108149514Y-64539999D01*
X108149529Y-64540000D01*
X108385471Y-64540000D01*
X108385485Y-64539999D01*
X108619414Y-64509200D01*
X108847337Y-64448129D01*
X109065319Y-64357839D01*
X109065328Y-64357834D01*
X109269681Y-64239850D01*
X109351223Y-64177279D01*
X109351223Y-64177276D01*
X108514987Y-63341041D01*
X108575390Y-63316022D01*
X108681851Y-63244888D01*
X108772388Y-63154351D01*
X108843522Y-63047890D01*
X108868541Y-62987487D01*
X109704776Y-63823723D01*
X109704779Y-63823723D01*
X109767350Y-63742181D01*
X109885334Y-63537828D01*
X109885339Y-63537819D01*
X109975629Y-63319837D01*
X110036700Y-63091914D01*
X110067499Y-62857985D01*
X110067500Y-62857971D01*
X110067500Y-62622028D01*
X110067499Y-62622014D01*
X110036700Y-62388085D01*
X109975629Y-62160162D01*
X109885339Y-61942180D01*
X109885334Y-61942171D01*
X109767355Y-61737828D01*
X109767354Y-61737827D01*
X109704777Y-61656275D01*
X108868541Y-62492511D01*
X108843522Y-62432110D01*
X108772388Y-62325649D01*
X108681851Y-62235112D01*
X108575390Y-62163978D01*
X108514988Y-62138958D01*
X109351223Y-61302721D01*
X109269672Y-61240145D01*
X109269671Y-61240144D01*
X109065328Y-61122165D01*
X109065319Y-61122160D01*
X108847336Y-61031870D01*
X108847338Y-61031870D01*
X108619414Y-60970799D01*
X108385485Y-60940000D01*
X108149514Y-60940000D01*
X107915585Y-60970799D01*
X107687662Y-61031870D01*
X107469680Y-61122160D01*
X107469671Y-61122165D01*
X107265328Y-61240144D01*
X107265318Y-61240150D01*
X107183775Y-61302720D01*
X107183775Y-61302721D01*
X108020012Y-62138958D01*
X107959610Y-62163978D01*
X107853149Y-62235112D01*
X107762612Y-62325649D01*
X107691478Y-62432110D01*
X107666458Y-62492512D01*
X106830221Y-61656275D01*
X106830220Y-61656275D01*
X106767650Y-61737818D01*
X106767644Y-61737828D01*
X106649665Y-61942171D01*
X106649660Y-61942180D01*
X106559370Y-62160162D01*
X106498299Y-62388085D01*
X106467500Y-62622014D01*
X63375500Y-62622014D01*
X63375500Y-57539514D01*
X71315000Y-57539514D01*
X71315000Y-57775485D01*
X71345799Y-58009414D01*
X71406870Y-58237337D01*
X71497160Y-58455319D01*
X71497165Y-58455328D01*
X71615144Y-58659671D01*
X71615145Y-58659672D01*
X71677721Y-58741223D01*
X72513958Y-57904987D01*
X72538978Y-57965390D01*
X72610112Y-58071851D01*
X72700649Y-58162388D01*
X72807110Y-58233522D01*
X72867511Y-58258541D01*
X72031275Y-59094777D01*
X72112827Y-59157354D01*
X72112828Y-59157355D01*
X72317171Y-59275334D01*
X72317180Y-59275339D01*
X72535163Y-59365629D01*
X72535161Y-59365629D01*
X72763085Y-59426700D01*
X72997014Y-59457499D01*
X72997029Y-59457500D01*
X73232971Y-59457500D01*
X73232985Y-59457499D01*
X73466914Y-59426700D01*
X73694837Y-59365629D01*
X73912819Y-59275339D01*
X73912828Y-59275334D01*
X74117181Y-59157350D01*
X74198723Y-59094779D01*
X74198723Y-59094776D01*
X73362487Y-58258541D01*
X73422890Y-58233522D01*
X73529351Y-58162388D01*
X73619888Y-58071851D01*
X73691022Y-57965390D01*
X73716041Y-57904987D01*
X74552276Y-58741223D01*
X74552279Y-58741223D01*
X74614850Y-58659681D01*
X74732834Y-58455328D01*
X74732839Y-58455319D01*
X74823129Y-58237337D01*
X74884200Y-58009414D01*
X74914999Y-57775485D01*
X74915000Y-57775471D01*
X74915000Y-57539528D01*
X74914999Y-57539514D01*
X74884200Y-57305585D01*
X74823129Y-57077662D01*
X74732839Y-56859680D01*
X74732834Y-56859671D01*
X74614855Y-56655328D01*
X74614848Y-56655317D01*
X74595286Y-56629824D01*
X74595283Y-56629821D01*
X74552277Y-56573775D01*
X73716041Y-57410011D01*
X73691022Y-57349610D01*
X73619888Y-57243149D01*
X73529351Y-57152612D01*
X73422890Y-57081478D01*
X73362488Y-57056458D01*
X73861462Y-56557483D01*
X76394500Y-56557483D01*
X76394500Y-58757501D01*
X76394501Y-58757518D01*
X76405000Y-58860296D01*
X76405001Y-58860299D01*
X76460185Y-59026831D01*
X76460186Y-59026834D01*
X76552288Y-59176156D01*
X76676344Y-59300212D01*
X76825666Y-59392314D01*
X76992203Y-59447499D01*
X77094991Y-59458000D01*
X79295008Y-59457999D01*
X79397797Y-59447499D01*
X79564334Y-59392314D01*
X79713656Y-59300212D01*
X79837712Y-59176156D01*
X79929814Y-59026834D01*
X79984999Y-58860297D01*
X79995500Y-58757509D01*
X79995499Y-56557492D01*
X79984999Y-56454703D01*
X79929814Y-56288166D01*
X79837712Y-56138844D01*
X79713656Y-56014788D01*
X79564334Y-55922686D01*
X79397797Y-55867501D01*
X79397795Y-55867500D01*
X79295010Y-55857000D01*
X77094998Y-55857000D01*
X77094981Y-55857001D01*
X76992203Y-55867500D01*
X76992200Y-55867501D01*
X76825668Y-55922685D01*
X76825663Y-55922687D01*
X76676342Y-56014789D01*
X76552289Y-56138842D01*
X76460187Y-56288163D01*
X76460186Y-56288166D01*
X76405001Y-56454703D01*
X76405001Y-56454704D01*
X76405000Y-56454704D01*
X76394500Y-56557483D01*
X73861462Y-56557483D01*
X74198723Y-56220221D01*
X74117172Y-56157645D01*
X74117171Y-56157644D01*
X73912828Y-56039665D01*
X73912819Y-56039660D01*
X73694836Y-55949370D01*
X73694838Y-55949370D01*
X73466914Y-55888299D01*
X73232985Y-55857500D01*
X72997014Y-55857500D01*
X72763085Y-55888299D01*
X72535162Y-55949370D01*
X72317180Y-56039660D01*
X72317171Y-56039665D01*
X72112828Y-56157644D01*
X72112818Y-56157650D01*
X72031275Y-56220220D01*
X72031275Y-56220221D01*
X72867512Y-57056458D01*
X72807110Y-57081478D01*
X72700649Y-57152612D01*
X72610112Y-57243149D01*
X72538978Y-57349610D01*
X72513958Y-57410011D01*
X71677721Y-56573775D01*
X71677720Y-56573775D01*
X71615150Y-56655318D01*
X71615144Y-56655328D01*
X71497165Y-56859671D01*
X71497160Y-56859680D01*
X71406870Y-57077662D01*
X71345799Y-57305585D01*
X71315000Y-57539514D01*
X63375500Y-57539514D01*
X63375500Y-50699500D01*
X63395185Y-50632461D01*
X63447989Y-50586706D01*
X63499500Y-50575500D01*
X116425500Y-50575500D01*
X116492539Y-50595185D01*
G37*
%TD.AperFunction*%
%TD*%
M02*
