%TF.GenerationSoftware,KiCad,Pcbnew,10.0.2*%
%TF.CreationDate,2026-06-04T11:42:46-04:00*%
%TF.ProjectId,solar_supplied_battery,736f6c61-725f-4737-9570-706c6965645f,rev?*%
%TF.SameCoordinates,Original*%
%TF.FileFunction,Copper,L1,Top*%
%TF.FilePolarity,Positive*%
%FSLAX46Y46*%
G04 Gerber Fmt 4.6, Leading zero omitted, Abs format (unit mm)*
G04 Created by KiCad (PCBNEW 10.0.2) date 2026-06-04 11:42:46*
%MOMM*%
%LPD*%
G01*
G04 APERTURE LIST*
G04 Aperture macros list*
%AMRoundRect*
0 Rectangle with rounded corners*
0 $1 Rounding radius*
0 $2 $3 $4 $5 $6 $7 $8 $9 X,Y pos of 4 corners*
0 Add a 4 corners polygon primitive as box body*
4,1,4,$2,$3,$4,$5,$6,$7,$8,$9,$2,$3,0*
0 Add four circle primitives for the rounded corners*
1,1,$1+$1,$2,$3*
1,1,$1+$1,$4,$5*
1,1,$1+$1,$6,$7*
1,1,$1+$1,$8,$9*
0 Add four rect primitives between the rounded corners*
20,1,$1+$1,$2,$3,$4,$5,0*
20,1,$1+$1,$4,$5,$6,$7,0*
20,1,$1+$1,$6,$7,$8,$9,0*
20,1,$1+$1,$8,$9,$2,$3,0*%
G04 Aperture macros list end*
%TA.AperFunction,SMDPad,CuDef*%
%ADD10R,2.120000X1.500000*%
%TD*%
%TA.AperFunction,ComponentPad*%
%ADD11RoundRect,0.250000X-1.050000X-1.050000X1.050000X-1.050000X1.050000X1.050000X-1.050000X1.050000X0*%
%TD*%
%TA.AperFunction,ComponentPad*%
%ADD12C,2.600000*%
%TD*%
%TA.AperFunction,SMDPad,CuDef*%
%ADD13RoundRect,0.250000X0.250000X0.475000X-0.250000X0.475000X-0.250000X-0.475000X0.250000X-0.475000X0*%
%TD*%
%TA.AperFunction,SMDPad,CuDef*%
%ADD14R,2.350000X3.500000*%
%TD*%
%TA.AperFunction,ComponentPad*%
%ADD15C,1.800000*%
%TD*%
%TA.AperFunction,ComponentPad*%
%ADD16O,1.500000X2.500000*%
%TD*%
%TA.AperFunction,SMDPad,CuDef*%
%ADD17R,1.500000X2.120000*%
%TD*%
%TA.AperFunction,SMDPad,CuDef*%
%ADD18RoundRect,0.250000X0.262500X0.450000X-0.262500X0.450000X-0.262500X-0.450000X0.262500X-0.450000X0*%
%TD*%
%TA.AperFunction,SMDPad,CuDef*%
%ADD19RoundRect,0.250000X0.450000X-0.262500X0.450000X0.262500X-0.450000X0.262500X-0.450000X-0.262500X0*%
%TD*%
%TA.AperFunction,ComponentPad*%
%ADD20RoundRect,0.250000X1.050000X-1.050000X1.050000X1.050000X-1.050000X1.050000X-1.050000X-1.050000X0*%
%TD*%
%TA.AperFunction,SMDPad,CuDef*%
%ADD21R,1.181100X0.558800*%
%TD*%
%TA.AperFunction,SMDPad,CuDef*%
%ADD22RoundRect,0.150000X-0.150000X0.587500X-0.150000X-0.587500X0.150000X-0.587500X0.150000X0.587500X0*%
%TD*%
%TA.AperFunction,SMDPad,CuDef*%
%ADD23RoundRect,0.250000X0.475000X-0.250000X0.475000X0.250000X-0.475000X0.250000X-0.475000X-0.250000X0*%
%TD*%
%TA.AperFunction,ComponentPad*%
%ADD24RoundRect,0.250000X1.050000X1.050000X-1.050000X1.050000X-1.050000X-1.050000X1.050000X-1.050000X0*%
%TD*%
%TA.AperFunction,SMDPad,CuDef*%
%ADD25RoundRect,0.250000X0.650000X-0.325000X0.650000X0.325000X-0.650000X0.325000X-0.650000X-0.325000X0*%
%TD*%
%TA.AperFunction,ViaPad*%
%ADD26C,0.800000*%
%TD*%
%TA.AperFunction,Conductor*%
%ADD27C,0.200000*%
%TD*%
%TA.AperFunction,Conductor*%
%ADD28C,0.350000*%
%TD*%
G04 APERTURE END LIST*
D10*
%TO.P,D1,A*%
%TO.N,Net-(U1-SW)*%
X96570000Y-73202800D03*
%TO.P,D1,C*%
%TO.N,/OUT_P*%
X100800000Y-73202800D03*
%TD*%
D11*
%TO.P,J2,1,Pin_1_1*%
%TO.N,/BAT_P*%
X76305000Y-79017500D03*
D12*
%TO.P,J2,2,Pin_2_2*%
%TO.N,GNDD*%
X81385000Y-79017500D03*
%TD*%
D13*
%TO.P,C3,1*%
%TO.N,/OUT_P*%
X99248000Y-61163200D03*
%TO.P,C3,2*%
%TO.N,Net-(U1-FB)*%
X97348000Y-61163200D03*
%TD*%
D14*
%TO.P,L1,1,1_1*%
%TO.N,Net-(U1-SW)*%
X92814000Y-75082400D03*
%TO.P,L1,2,2_2*%
%TO.N,Net-(SW1-A)*%
X86764000Y-75082400D03*
%TD*%
D15*
%TO.P,SW1,1,A_1*%
%TO.N,Net-(SW1-A)*%
X89000000Y-82850000D03*
%TO.P,SW1,2,B_2*%
%TO.N,/BAT_P*%
X92000000Y-82850000D03*
%TO.P,SW1,3,C_3*%
%TO.N,unconnected-(SW1-C-Pad3)*%
X95000000Y-82850000D03*
D16*
%TO.P,SW1,4*%
%TO.N,N/C*%
X97800000Y-82850000D03*
%TO.P,SW1,5*%
X86200000Y-82850000D03*
%TD*%
D17*
%TO.P,D2,A*%
%TO.N,/SOLAR_P*%
X84023200Y-63346800D03*
%TO.P,D2,C*%
%TO.N,/BAT_P*%
X84023200Y-67576800D03*
%TD*%
D18*
%TO.P,R2,1*%
%TO.N,Net-(U1-FB)*%
X96687500Y-66125000D03*
%TO.P,R2,2*%
%TO.N,GNDD*%
X94862500Y-66125000D03*
%TD*%
%TO.P,R4,1*%
%TO.N,/SOLAR_P*%
X92149300Y-61163200D03*
%TO.P,R4,2*%
%TO.N,GNDD*%
X90324300Y-61163200D03*
%TD*%
D19*
%TO.P,R3,1*%
%TO.N,Net-(SW1-A)*%
X87630000Y-67816100D03*
%TO.P,R3,2*%
%TO.N,Net-(Q1-D)*%
X87630000Y-65991100D03*
%TD*%
D20*
%TO.P,J1,1,Pin_1_1*%
%TO.N,/OUT_P*%
X108267500Y-67820000D03*
D12*
%TO.P,J1,2,Pin_2_2*%
%TO.N,GNDD*%
X108267500Y-62740000D03*
%TD*%
D21*
%TO.P,U1,1,SW_1*%
%TO.N,Net-(U1-SW)*%
X95802450Y-70139601D03*
%TO.P,U1,2,GND_2*%
%TO.N,GNDD*%
X95802450Y-69189600D03*
%TO.P,U1,3,FB_3*%
%TO.N,Net-(U1-FB)*%
X95802450Y-68239599D03*
%TO.P,U1,4,SHDN_4*%
%TO.N,Net-(Q1-D)*%
X93071950Y-68239599D03*
%TO.P,U1,5,VIN_5*%
%TO.N,Net-(SW1-A)*%
X93071950Y-70139601D03*
%TD*%
D22*
%TO.P,Q1,1,G_1*%
%TO.N,/SOLAR_P*%
X92136000Y-63883300D03*
%TO.P,Q1,2,S_2*%
%TO.N,GNDD*%
X90236000Y-63883300D03*
%TO.P,Q1,3,D_3*%
%TO.N,Net-(Q1-D)*%
X91186000Y-65758300D03*
%TD*%
D23*
%TO.P,C1,1*%
%TO.N,Net-(SW1-A)*%
X90322400Y-70088800D03*
%TO.P,C1,2*%
%TO.N,GNDD*%
X90322400Y-68188800D03*
%TD*%
D18*
%TO.P,R1,1*%
%TO.N,/OUT_P*%
X99312100Y-63855600D03*
%TO.P,R1,2*%
%TO.N,Net-(U1-FB)*%
X97487100Y-63855600D03*
%TD*%
D24*
%TO.P,J4,1,Pin_1_1*%
%TO.N,/SOLAR_P*%
X78195000Y-57657500D03*
D12*
%TO.P,J4,2,Pin_2_2*%
%TO.N,GNDD*%
X73115000Y-57657500D03*
%TD*%
D25*
%TO.P,C2,1*%
%TO.N,/OUT_P*%
X98958400Y-69496200D03*
%TO.P,C2,2*%
%TO.N,GNDD*%
X98958400Y-66546200D03*
%TD*%
D26*
%TO.N,GNDD*%
X87825000Y-54375000D03*
X91775000Y-69125000D03*
X97475000Y-68125000D03*
X66450000Y-82625000D03*
X103500000Y-65300000D03*
X113150000Y-79750000D03*
X93700000Y-63575000D03*
X101375000Y-79800000D03*
X98775000Y-71900000D03*
X75000000Y-67850000D03*
X113150000Y-54450000D03*
X66575000Y-54375000D03*
X101325000Y-54425000D03*
X66500000Y-67800000D03*
%TD*%
%TO.N,Net-(U1-SW)*%
D27*
X95802450Y-72435250D02*
X96570000Y-73202800D01*
X94234000Y-73202800D02*
X92354400Y-75082400D01*
X95802450Y-70139601D02*
X95802450Y-72435250D01*
X96570000Y-73202800D02*
X94234000Y-73202800D01*
%TO.N,/OUT_P*%
D28*
X100800000Y-73202800D02*
X100800000Y-71337800D01*
X98958400Y-69496200D02*
X98958400Y-69191600D01*
X99248000Y-63791500D02*
X99312100Y-63855600D01*
X101050000Y-67100000D02*
X101050000Y-65593500D01*
X101050000Y-65593500D02*
X99312100Y-63855600D01*
X99248000Y-61163200D02*
X99248000Y-63791500D01*
X106182800Y-67820000D02*
X100800000Y-73202800D01*
X98958400Y-69191600D02*
X101050000Y-67100000D01*
X100800000Y-71337800D02*
X98958400Y-69496200D01*
X108267500Y-67820000D02*
X106182800Y-67820000D01*
%TO.N,/BAT_P*%
X76305000Y-79655000D02*
X81800000Y-85150000D01*
X76305000Y-75295000D02*
X84023200Y-67576800D01*
X81800000Y-85150000D02*
X89600000Y-85150000D01*
X76305000Y-79017500D02*
X76305000Y-79655000D01*
X91575000Y-83275000D02*
X92000000Y-82850000D01*
X76305000Y-79017500D02*
X76305000Y-75295000D01*
X89600000Y-85150000D02*
X91475000Y-83275000D01*
X91475000Y-83275000D02*
X91575000Y-83275000D01*
%TO.N,Net-(U1-FB)*%
D27*
X96562500Y-64780200D02*
X97487100Y-63855600D01*
X97348000Y-61163200D02*
X97348000Y-63716500D01*
X97348000Y-63716500D02*
X97487100Y-63855600D01*
X95802450Y-67010050D02*
X96687500Y-66125000D01*
X96687500Y-65600000D02*
X96562500Y-65475000D01*
X96562500Y-65475000D02*
X96562500Y-64780200D01*
X96687500Y-66125000D02*
X96687500Y-65600000D01*
X95802450Y-68239599D02*
X95802450Y-67010050D01*
%TO.N,Net-(SW1-A)*%
X93071950Y-70139601D02*
X90373201Y-70139601D01*
X84750000Y-77556000D02*
X87223600Y-75082400D01*
X89000000Y-82850000D02*
X89000000Y-82550000D01*
X87223600Y-75082400D02*
X85993300Y-73852100D01*
X90373201Y-70139601D02*
X90322400Y-70088800D01*
X85993300Y-73852100D02*
X85993300Y-71662778D01*
X87567278Y-70088800D02*
X90322400Y-70088800D01*
X88375000Y-81925000D02*
X88375000Y-81525000D01*
X85993300Y-71662778D02*
X87567278Y-70088800D01*
X89000000Y-82550000D02*
X88375000Y-81925000D01*
X86075000Y-79225000D02*
X85175000Y-79225000D01*
X88049700Y-67816100D02*
X90322400Y-70088800D01*
X87630000Y-67816100D02*
X88049700Y-67816100D01*
X84750000Y-78800000D02*
X84750000Y-77556000D01*
X88375000Y-81525000D02*
X86075000Y-79225000D01*
X85175000Y-79225000D02*
X84750000Y-78800000D01*
%TO.N,/SOLAR_P*%
D28*
X90311100Y-59325000D02*
X92149300Y-61163200D01*
X92149300Y-61163200D02*
X92149300Y-63870000D01*
X78333900Y-57657500D02*
X84023200Y-63346800D01*
X84023200Y-63346800D02*
X84278200Y-63346800D01*
X78195000Y-57657500D02*
X78333900Y-57657500D01*
X84278200Y-63346800D02*
X88300000Y-59325000D01*
X92149300Y-63870000D02*
X92136000Y-63883300D01*
X88300000Y-59325000D02*
X90311100Y-59325000D01*
%TO.N,Net-(Q1-D)*%
D27*
X87630000Y-65991100D02*
X90953200Y-65991100D01*
X90953200Y-65991100D02*
X91186000Y-65758300D01*
X93071950Y-67644250D02*
X93071950Y-68239599D01*
X91186000Y-65758300D02*
X93071950Y-67644250D01*
%TD*%
%TA.AperFunction,Conductor*%
%TO.N,GNDD*%
G36*
X116492539Y-50595185D02*
G01*
X116538294Y-50647989D01*
X116549500Y-50699500D01*
X116549500Y-85875500D01*
X116529815Y-85942539D01*
X116477011Y-85988294D01*
X116425500Y-85999500D01*
X89937682Y-85999500D01*
X89870643Y-85979815D01*
X89824888Y-85927011D01*
X89814944Y-85857853D01*
X89843969Y-85794297D01*
X89890229Y-85760939D01*
X89896386Y-85758388D01*
X89919969Y-85748620D01*
X90030606Y-85674695D01*
X91480375Y-84224924D01*
X91541696Y-84191441D01*
X91606371Y-84194676D01*
X91672046Y-84216014D01*
X91672049Y-84216015D01*
X91889778Y-84250500D01*
X91889779Y-84250500D01*
X92110221Y-84250500D01*
X92110222Y-84250500D01*
X92327951Y-84216015D01*
X92537606Y-84147895D01*
X92734022Y-84047815D01*
X92912365Y-83918242D01*
X93068242Y-83762365D01*
X93197815Y-83584022D01*
X93297895Y-83387606D01*
X93366015Y-83177951D01*
X93377527Y-83105266D01*
X93407456Y-83042133D01*
X93466767Y-83005201D01*
X93536630Y-83006199D01*
X93594863Y-83044809D01*
X93622473Y-83105267D01*
X93633985Y-83177952D01*
X93702103Y-83387603D01*
X93702104Y-83387606D01*
X93802187Y-83584025D01*
X93931752Y-83762358D01*
X93931756Y-83762363D01*
X94087636Y-83918243D01*
X94087641Y-83918247D01*
X94207605Y-84005405D01*
X94265978Y-84047815D01*
X94394375Y-84113237D01*
X94462393Y-84147895D01*
X94462396Y-84147896D01*
X94513949Y-84164646D01*
X94672049Y-84216015D01*
X94889778Y-84250500D01*
X94889779Y-84250500D01*
X95110221Y-84250500D01*
X95110222Y-84250500D01*
X95327951Y-84216015D01*
X95537606Y-84147895D01*
X95734022Y-84047815D01*
X95912365Y-83918242D01*
X96068242Y-83762365D01*
X96197815Y-83584022D01*
X96297895Y-83387606D01*
X96307569Y-83357833D01*
X96347006Y-83300158D01*
X96411364Y-83272959D01*
X96480211Y-83284873D01*
X96531687Y-83332117D01*
X96549500Y-83396151D01*
X96549500Y-83448422D01*
X96580290Y-83642826D01*
X96641117Y-83830029D01*
X96686065Y-83918243D01*
X96730476Y-84005405D01*
X96846172Y-84164646D01*
X96985354Y-84303828D01*
X97144595Y-84419524D01*
X97203951Y-84449767D01*
X97319970Y-84508882D01*
X97319972Y-84508882D01*
X97319975Y-84508884D01*
X97420317Y-84541487D01*
X97507173Y-84569709D01*
X97701578Y-84600500D01*
X97701583Y-84600500D01*
X97898422Y-84600500D01*
X98092826Y-84569709D01*
X98280025Y-84508884D01*
X98455405Y-84419524D01*
X98614646Y-84303828D01*
X98753828Y-84164646D01*
X98869524Y-84005405D01*
X98958884Y-83830025D01*
X99019709Y-83642826D01*
X99029023Y-83584022D01*
X99050500Y-83448422D01*
X99050500Y-82251577D01*
X99019709Y-82057173D01*
X98980870Y-81937641D01*
X98958884Y-81869975D01*
X98958882Y-81869972D01*
X98958882Y-81869970D01*
X98869523Y-81694594D01*
X98753828Y-81535354D01*
X98614646Y-81396172D01*
X98455405Y-81280476D01*
X98280029Y-81191117D01*
X98092826Y-81130290D01*
X97898422Y-81099500D01*
X97898417Y-81099500D01*
X97701583Y-81099500D01*
X97701578Y-81099500D01*
X97507173Y-81130290D01*
X97319970Y-81191117D01*
X97144594Y-81280476D01*
X97127061Y-81293215D01*
X96985354Y-81396172D01*
X96985352Y-81396174D01*
X96985351Y-81396174D01*
X96846174Y-81535351D01*
X96846174Y-81535352D01*
X96846172Y-81535354D01*
X96834002Y-81552105D01*
X96730476Y-81694594D01*
X96641117Y-81869970D01*
X96580290Y-82057173D01*
X96549500Y-82251577D01*
X96549500Y-82303848D01*
X96529815Y-82370887D01*
X96477011Y-82416642D01*
X96407853Y-82426586D01*
X96344297Y-82397561D01*
X96307569Y-82342167D01*
X96303912Y-82330912D01*
X96297895Y-82312394D01*
X96297894Y-82312393D01*
X96297895Y-82312393D01*
X96263237Y-82244375D01*
X96197815Y-82115978D01*
X96181046Y-82092898D01*
X96068247Y-81937641D01*
X96068243Y-81937636D01*
X95912363Y-81781756D01*
X95912358Y-81781752D01*
X95734025Y-81652187D01*
X95734024Y-81652186D01*
X95734022Y-81652185D01*
X95671096Y-81620122D01*
X95537606Y-81552104D01*
X95537603Y-81552103D01*
X95327952Y-81483985D01*
X95219086Y-81466742D01*
X95110222Y-81449500D01*
X94889778Y-81449500D01*
X94817201Y-81460995D01*
X94672047Y-81483985D01*
X94462396Y-81552103D01*
X94462393Y-81552104D01*
X94265974Y-81652187D01*
X94087641Y-81781752D01*
X94087636Y-81781756D01*
X93931756Y-81937636D01*
X93931752Y-81937641D01*
X93802187Y-82115974D01*
X93702104Y-82312393D01*
X93702103Y-82312396D01*
X93633985Y-82522047D01*
X93622473Y-82594732D01*
X93592544Y-82657867D01*
X93533232Y-82694798D01*
X93463370Y-82693800D01*
X93405137Y-82655190D01*
X93377527Y-82594732D01*
X93375985Y-82585001D01*
X93366015Y-82522049D01*
X93312384Y-82356988D01*
X93297896Y-82312396D01*
X93297895Y-82312393D01*
X93263237Y-82244375D01*
X93197815Y-82115978D01*
X93181046Y-82092898D01*
X93068247Y-81937641D01*
X93068243Y-81937636D01*
X92912363Y-81781756D01*
X92912358Y-81781752D01*
X92734025Y-81652187D01*
X92734024Y-81652186D01*
X92734022Y-81652185D01*
X92671096Y-81620122D01*
X92537606Y-81552104D01*
X92537603Y-81552103D01*
X92327952Y-81483985D01*
X92219086Y-81466742D01*
X92110222Y-81449500D01*
X91889778Y-81449500D01*
X91817201Y-81460995D01*
X91672047Y-81483985D01*
X91462396Y-81552103D01*
X91462393Y-81552104D01*
X91265974Y-81652187D01*
X91087641Y-81781752D01*
X91087636Y-81781756D01*
X90931756Y-81937636D01*
X90931752Y-81937641D01*
X90802187Y-82115974D01*
X90702104Y-82312393D01*
X90702103Y-82312396D01*
X90633985Y-82522047D01*
X90622473Y-82594732D01*
X90592544Y-82657867D01*
X90533232Y-82694798D01*
X90463370Y-82693800D01*
X90405137Y-82655190D01*
X90377527Y-82594732D01*
X90375985Y-82585001D01*
X90366015Y-82522049D01*
X90312384Y-82356988D01*
X90297896Y-82312396D01*
X90297895Y-82312393D01*
X90263237Y-82244375D01*
X90197815Y-82115978D01*
X90181046Y-82092898D01*
X90068247Y-81937641D01*
X90068243Y-81937636D01*
X89912363Y-81781756D01*
X89912358Y-81781752D01*
X89734025Y-81652187D01*
X89734024Y-81652186D01*
X89734022Y-81652185D01*
X89671096Y-81620122D01*
X89537606Y-81552104D01*
X89537603Y-81552103D01*
X89327952Y-81483985D01*
X89219086Y-81466742D01*
X89110222Y-81449500D01*
X89110221Y-81449500D01*
X89071602Y-81449500D01*
X89051996Y-81443743D01*
X89031580Y-81442864D01*
X89019151Y-81434098D01*
X89004563Y-81429815D01*
X88991182Y-81414373D01*
X88974482Y-81402595D01*
X88965476Y-81384706D01*
X88958808Y-81377011D01*
X88956696Y-81372110D01*
X88953811Y-81365000D01*
X88934577Y-81293215D01*
X88905639Y-81243095D01*
X88855520Y-81156284D01*
X88743716Y-81044480D01*
X88743715Y-81044479D01*
X88739385Y-81040149D01*
X88739374Y-81040139D01*
X86562590Y-78863355D01*
X86562588Y-78863352D01*
X86443717Y-78744481D01*
X86443716Y-78744480D01*
X86356904Y-78694360D01*
X86356904Y-78694359D01*
X86356900Y-78694358D01*
X86306785Y-78665423D01*
X86154057Y-78624499D01*
X85995943Y-78624499D01*
X85988347Y-78624499D01*
X85988331Y-78624500D01*
X85475098Y-78624500D01*
X85445657Y-78615855D01*
X85415671Y-78609332D01*
X85410655Y-78605577D01*
X85408059Y-78604815D01*
X85387417Y-78588181D01*
X85386819Y-78587583D01*
X85353334Y-78526260D01*
X85350500Y-78499902D01*
X85350500Y-77856096D01*
X85370185Y-77789057D01*
X85386815Y-77768419D01*
X85786016Y-77369217D01*
X85847339Y-77335733D01*
X85873697Y-77332899D01*
X87986871Y-77332899D01*
X87986872Y-77332899D01*
X88046483Y-77326491D01*
X88181331Y-77276196D01*
X88296546Y-77189946D01*
X88382796Y-77074731D01*
X88433091Y-76939883D01*
X88439500Y-76880273D01*
X88439499Y-73284535D01*
X91138500Y-73284535D01*
X91138500Y-76880270D01*
X91138501Y-76880276D01*
X91144908Y-76939883D01*
X91195202Y-77074728D01*
X91195206Y-77074735D01*
X91281452Y-77189944D01*
X91281455Y-77189947D01*
X91396664Y-77276193D01*
X91396671Y-77276197D01*
X91531517Y-77326491D01*
X91531516Y-77326491D01*
X91538444Y-77327235D01*
X91591127Y-77332900D01*
X94036872Y-77332899D01*
X94096483Y-77326491D01*
X94231331Y-77276196D01*
X94346546Y-77189946D01*
X94432796Y-77074731D01*
X94483091Y-76939883D01*
X94489500Y-76880273D01*
X94489499Y-73927299D01*
X94509184Y-73860261D01*
X94561988Y-73814506D01*
X94613499Y-73803300D01*
X94885501Y-73803300D01*
X94952540Y-73822985D01*
X94998295Y-73875789D01*
X95009501Y-73927300D01*
X95009501Y-74000676D01*
X95015908Y-74060283D01*
X95066202Y-74195128D01*
X95066206Y-74195135D01*
X95152452Y-74310344D01*
X95152455Y-74310347D01*
X95267664Y-74396593D01*
X95267671Y-74396597D01*
X95402517Y-74446891D01*
X95402516Y-74446891D01*
X95409444Y-74447635D01*
X95462127Y-74453300D01*
X97677872Y-74453299D01*
X97737483Y-74446891D01*
X97872331Y-74396596D01*
X97987546Y-74310346D01*
X98073796Y-74195131D01*
X98124091Y-74060283D01*
X98130500Y-74000673D01*
X98130499Y-72404928D01*
X98124091Y-72345317D01*
X98073796Y-72210469D01*
X98073795Y-72210468D01*
X98073793Y-72210464D01*
X97987547Y-72095255D01*
X97987544Y-72095252D01*
X97872335Y-72009006D01*
X97872328Y-72009002D01*
X97737482Y-71958708D01*
X97737483Y-71958708D01*
X97677883Y-71952301D01*
X97677881Y-71952300D01*
X97677873Y-71952300D01*
X97677865Y-71952300D01*
X96526950Y-71952300D01*
X96459911Y-71932615D01*
X96414156Y-71879811D01*
X96402950Y-71828300D01*
X96402950Y-71034253D01*
X96422635Y-70967214D01*
X96475439Y-70921459D01*
X96498434Y-70913576D01*
X96500478Y-70913092D01*
X96500483Y-70913092D01*
X96635331Y-70862797D01*
X96750546Y-70776547D01*
X96836796Y-70661332D01*
X96887091Y-70526484D01*
X96893500Y-70466874D01*
X96893499Y-69812329D01*
X96887091Y-69752718D01*
X96870119Y-69707215D01*
X96865136Y-69637526D01*
X96870121Y-69620548D01*
X96886598Y-69576372D01*
X96892999Y-69516844D01*
X96893000Y-69516827D01*
X96893000Y-69439600D01*
X96707587Y-69439600D01*
X96640548Y-69419915D01*
X96636084Y-69416816D01*
X96635329Y-69416403D01*
X96500482Y-69366109D01*
X96500483Y-69366109D01*
X96440883Y-69359702D01*
X96440881Y-69359701D01*
X96440873Y-69359701D01*
X96440865Y-69359701D01*
X95164029Y-69359701D01*
X95164023Y-69359702D01*
X95104416Y-69366109D01*
X94969570Y-69416403D01*
X94961788Y-69420654D01*
X94960826Y-69418893D01*
X94906161Y-69439284D01*
X94897313Y-69439600D01*
X94711900Y-69439600D01*
X94711900Y-69516844D01*
X94718301Y-69576372D01*
X94718303Y-69576382D01*
X94734778Y-69620553D01*
X94739762Y-69690244D01*
X94734779Y-69707216D01*
X94717810Y-69752714D01*
X94717809Y-69752718D01*
X94711400Y-69812328D01*
X94711400Y-69812335D01*
X94711400Y-69812336D01*
X94711400Y-70466871D01*
X94711401Y-70466877D01*
X94717808Y-70526484D01*
X94768102Y-70661329D01*
X94768106Y-70661336D01*
X94854352Y-70776545D01*
X94854355Y-70776548D01*
X94969564Y-70862794D01*
X94969571Y-70862798D01*
X95088614Y-70907198D01*
X95104417Y-70913092D01*
X95104419Y-70913092D01*
X95106454Y-70913573D01*
X95107875Y-70914381D01*
X95111685Y-70915803D01*
X95111454Y-70916419D01*
X95167173Y-70948140D01*
X95199565Y-71010048D01*
X95201950Y-71034252D01*
X95201950Y-71996131D01*
X95182265Y-72063170D01*
X95158473Y-72088725D01*
X95158728Y-72088980D01*
X95152451Y-72095257D01*
X95066206Y-72210464D01*
X95066202Y-72210471D01*
X95015908Y-72345317D01*
X95009501Y-72404916D01*
X95009501Y-72404923D01*
X95009500Y-72404935D01*
X95009500Y-72478300D01*
X94989815Y-72545339D01*
X94937011Y-72591094D01*
X94885500Y-72602300D01*
X94320669Y-72602300D01*
X94320653Y-72602299D01*
X94313057Y-72602299D01*
X94154943Y-72602299D01*
X94075010Y-72623717D01*
X94002216Y-72643222D01*
X93960972Y-72667035D01*
X93960971Y-72667034D01*
X93865284Y-72722279D01*
X93791981Y-72795582D01*
X93730657Y-72829066D01*
X93704300Y-72831900D01*
X91591129Y-72831900D01*
X91591123Y-72831901D01*
X91531516Y-72838308D01*
X91396671Y-72888602D01*
X91396664Y-72888606D01*
X91281455Y-72974852D01*
X91281452Y-72974855D01*
X91195206Y-73090064D01*
X91195202Y-73090071D01*
X91144908Y-73224917D01*
X91138501Y-73284516D01*
X91138500Y-73284535D01*
X88439499Y-73284535D01*
X88439499Y-73284528D01*
X88433091Y-73224917D01*
X88382796Y-73090069D01*
X88382795Y-73090068D01*
X88382793Y-73090064D01*
X88296547Y-72974855D01*
X88296544Y-72974852D01*
X88181335Y-72888606D01*
X88181328Y-72888602D01*
X88046482Y-72838308D01*
X88046483Y-72838308D01*
X87986883Y-72831901D01*
X87986881Y-72831900D01*
X87986873Y-72831900D01*
X87986865Y-72831900D01*
X86717800Y-72831900D01*
X86650761Y-72812215D01*
X86605006Y-72759411D01*
X86593800Y-72707900D01*
X86593800Y-71962875D01*
X86613485Y-71895836D01*
X86630119Y-71875194D01*
X87779694Y-70725619D01*
X87841017Y-70692134D01*
X87867375Y-70689300D01*
X89112602Y-70689300D01*
X89179641Y-70708985D01*
X89218139Y-70748201D01*
X89254688Y-70807456D01*
X89378744Y-70931512D01*
X89528066Y-71023614D01*
X89694603Y-71078799D01*
X89797391Y-71089300D01*
X90847408Y-71089299D01*
X90847416Y-71089298D01*
X90847419Y-71089298D01*
X90903702Y-71083548D01*
X90950197Y-71078799D01*
X91116734Y-71023614D01*
X91266056Y-70931512D01*
X91390112Y-70807456D01*
X91395326Y-70799003D01*
X91447275Y-70752279D01*
X91500864Y-70740101D01*
X92036045Y-70740101D01*
X92103084Y-70759786D01*
X92123726Y-70776420D01*
X92123850Y-70776544D01*
X92123853Y-70776546D01*
X92123854Y-70776547D01*
X92239069Y-70862797D01*
X92239070Y-70862797D01*
X92239071Y-70862798D01*
X92373917Y-70913092D01*
X92373916Y-70913092D01*
X92380844Y-70913836D01*
X92433527Y-70919501D01*
X93710372Y-70919500D01*
X93769983Y-70913092D01*
X93904831Y-70862797D01*
X94020046Y-70776547D01*
X94106296Y-70661332D01*
X94156591Y-70526484D01*
X94163000Y-70466874D01*
X94162999Y-69812329D01*
X94156591Y-69752718D01*
X94144419Y-69720084D01*
X94106297Y-69617872D01*
X94106293Y-69617865D01*
X94020047Y-69502656D01*
X94020044Y-69502653D01*
X93904835Y-69416407D01*
X93904828Y-69416403D01*
X93769982Y-69366109D01*
X93769983Y-69366109D01*
X93710383Y-69359702D01*
X93710381Y-69359701D01*
X93710373Y-69359701D01*
X93710364Y-69359701D01*
X92433529Y-69359701D01*
X92433523Y-69359702D01*
X92373916Y-69366109D01*
X92239071Y-69416403D01*
X92239069Y-69416405D01*
X92123850Y-69502657D01*
X92123726Y-69502782D01*
X92123571Y-69502866D01*
X92116754Y-69507970D01*
X92116020Y-69506989D01*
X92062403Y-69536267D01*
X92036045Y-69539101D01*
X91563532Y-69539101D01*
X91496493Y-69519416D01*
X91457993Y-69480198D01*
X91447208Y-69462712D01*
X91390112Y-69370144D01*
X91266056Y-69246088D01*
X91262742Y-69244043D01*
X91260946Y-69242048D01*
X91260389Y-69241607D01*
X91260464Y-69241511D01*
X91216018Y-69192097D01*
X91204797Y-69123134D01*
X91232640Y-69059052D01*
X91262748Y-69032965D01*
X91265742Y-69031118D01*
X91389715Y-68907145D01*
X91481756Y-68757924D01*
X91481758Y-68757919D01*
X91536905Y-68591497D01*
X91536906Y-68591490D01*
X91547399Y-68488786D01*
X91547400Y-68488773D01*
X91547400Y-68438800D01*
X90446400Y-68438800D01*
X90379361Y-68419115D01*
X90333606Y-68366311D01*
X90322400Y-68314800D01*
X90322400Y-68188800D01*
X90196400Y-68188800D01*
X90129361Y-68169115D01*
X90083606Y-68116311D01*
X90072400Y-68064800D01*
X90072400Y-67188800D01*
X89797429Y-67188800D01*
X89797412Y-67188801D01*
X89694702Y-67199294D01*
X89528280Y-67254441D01*
X89528275Y-67254443D01*
X89379054Y-67346484D01*
X89255084Y-67470454D01*
X89163043Y-67619675D01*
X89163042Y-67619678D01*
X89111654Y-67774756D01*
X89110299Y-67776712D01*
X89110130Y-67779085D01*
X89090515Y-67805285D01*
X89071881Y-67832200D01*
X89069683Y-67833113D01*
X89068258Y-67835018D01*
X89037591Y-67846456D01*
X89007365Y-67859023D01*
X89005022Y-67858603D01*
X89002794Y-67859435D01*
X88970815Y-67852478D01*
X88938589Y-67846708D01*
X88936121Y-67844931D01*
X88934521Y-67844583D01*
X88906267Y-67823432D01*
X88866818Y-67783983D01*
X88833333Y-67722660D01*
X88830499Y-67696302D01*
X88830499Y-67503598D01*
X88830498Y-67503581D01*
X88819999Y-67400803D01*
X88819998Y-67400800D01*
X88799700Y-67339545D01*
X88764814Y-67234266D01*
X88672712Y-67084944D01*
X88579049Y-66991281D01*
X88577531Y-66988502D01*
X88574831Y-66986850D01*
X88560896Y-66958036D01*
X88545564Y-66929958D01*
X88545789Y-66926800D01*
X88544411Y-66923950D01*
X88548265Y-66892183D01*
X88550548Y-66860266D01*
X88552560Y-66856787D01*
X88552827Y-66854589D01*
X88559673Y-66844491D01*
X88571249Y-66824484D01*
X88574947Y-66820020D01*
X88672712Y-66722256D01*
X88721508Y-66643143D01*
X88727027Y-66636484D01*
X88749111Y-66621592D01*
X88768917Y-66603779D01*
X88778892Y-66601512D01*
X88784958Y-66597422D01*
X88798172Y-66597130D01*
X88822508Y-66591600D01*
X90354894Y-66591600D01*
X90421933Y-66611285D01*
X90461626Y-66652479D01*
X90517916Y-66747661D01*
X90517923Y-66747670D01*
X90634129Y-66863876D01*
X90634133Y-66863879D01*
X90634135Y-66863881D01*
X90775602Y-66947544D01*
X90775605Y-66947544D01*
X90782765Y-66950644D01*
X90781525Y-66953507D01*
X90828227Y-66983337D01*
X90857428Y-67046812D01*
X90847677Y-67115998D01*
X90802069Y-67168929D01*
X90735084Y-67188800D01*
X90572400Y-67188800D01*
X90572400Y-67938800D01*
X91547399Y-67938800D01*
X91547399Y-67888828D01*
X91547398Y-67888813D01*
X91536905Y-67786102D01*
X91481758Y-67619680D01*
X91481756Y-67619675D01*
X91389715Y-67470454D01*
X91265745Y-67346484D01*
X91116524Y-67254443D01*
X91116519Y-67254441D01*
X91066920Y-67238006D01*
X91009475Y-67198233D01*
X90982652Y-67133718D01*
X90994967Y-67064942D01*
X91042510Y-67013742D01*
X91105924Y-66996300D01*
X91401686Y-66996300D01*
X91401694Y-66996300D01*
X91438569Y-66993398D01*
X91471432Y-66983850D01*
X91541298Y-66984047D01*
X91593709Y-67015244D01*
X92072392Y-67493927D01*
X92105877Y-67555250D01*
X92100893Y-67624942D01*
X92083978Y-67655918D01*
X92037606Y-67717863D01*
X92037602Y-67717870D01*
X91987310Y-67852712D01*
X91987309Y-67852716D01*
X91980900Y-67912326D01*
X91980900Y-67912333D01*
X91980900Y-67912334D01*
X91980900Y-68566869D01*
X91980901Y-68566875D01*
X91987308Y-68626482D01*
X92037602Y-68761327D01*
X92037606Y-68761334D01*
X92123852Y-68876543D01*
X92123855Y-68876546D01*
X92239064Y-68962792D01*
X92239071Y-68962796D01*
X92373917Y-69013090D01*
X92373916Y-69013090D01*
X92380844Y-69013834D01*
X92433527Y-69019499D01*
X93710372Y-69019498D01*
X93769983Y-69013090D01*
X93904831Y-68962795D01*
X94020046Y-68876545D01*
X94106296Y-68761330D01*
X94156591Y-68626482D01*
X94163000Y-68566872D01*
X94162999Y-67912327D01*
X94162999Y-67912326D01*
X94711400Y-67912326D01*
X94711400Y-67912333D01*
X94711400Y-67912334D01*
X94711400Y-68566869D01*
X94711401Y-68566875D01*
X94717809Y-68626483D01*
X94734778Y-68671981D01*
X94739762Y-68741673D01*
X94734779Y-68758644D01*
X94718303Y-68802820D01*
X94718301Y-68802827D01*
X94711900Y-68862355D01*
X94711900Y-68939600D01*
X94897313Y-68939600D01*
X94964352Y-68959285D01*
X94968815Y-68962383D01*
X94969570Y-68962796D01*
X95044055Y-68990576D01*
X95104417Y-69013090D01*
X95164027Y-69019499D01*
X96440872Y-69019498D01*
X96500483Y-69013090D01*
X96550736Y-68994347D01*
X96635329Y-68962796D01*
X96643112Y-68958546D01*
X96644073Y-68960306D01*
X96698739Y-68939916D01*
X96707587Y-68939600D01*
X96893000Y-68939600D01*
X96893000Y-68862372D01*
X96892999Y-68862355D01*
X96886598Y-68802827D01*
X96870120Y-68758647D01*
X96865136Y-68688955D01*
X96870116Y-68671991D01*
X96887091Y-68626482D01*
X96893500Y-68566872D01*
X96893499Y-67912327D01*
X96887091Y-67852716D01*
X96887002Y-67852478D01*
X96836797Y-67717870D01*
X96836793Y-67717863D01*
X96750547Y-67602654D01*
X96750544Y-67602651D01*
X96678562Y-67548765D01*
X96636691Y-67492831D01*
X96631707Y-67423140D01*
X96665193Y-67361817D01*
X96726516Y-67328333D01*
X96752873Y-67325499D01*
X97000002Y-67325499D01*
X97000008Y-67325499D01*
X97102797Y-67314999D01*
X97269334Y-67259814D01*
X97418656Y-67167712D01*
X97426314Y-67160053D01*
X97487632Y-67126569D01*
X97557324Y-67131551D01*
X97613259Y-67173420D01*
X97619846Y-67184424D01*
X97620251Y-67184175D01*
X97716084Y-67339545D01*
X97840054Y-67463515D01*
X97989275Y-67555556D01*
X97989280Y-67555558D01*
X98155702Y-67610705D01*
X98155709Y-67610706D01*
X98258419Y-67621199D01*
X98708399Y-67621199D01*
X98708400Y-67621198D01*
X98708400Y-65471200D01*
X98258428Y-65471200D01*
X98258412Y-65471201D01*
X98155702Y-65481694D01*
X97989280Y-65536841D01*
X97989271Y-65536845D01*
X97877238Y-65605948D01*
X97809846Y-65624388D01*
X97743182Y-65603465D01*
X97698413Y-65549823D01*
X97690886Y-65526351D01*
X97689999Y-65522207D01*
X97689999Y-65522203D01*
X97634814Y-65355666D01*
X97566674Y-65245193D01*
X97548235Y-65177803D01*
X97569158Y-65111140D01*
X97622799Y-65066370D01*
X97672214Y-65056099D01*
X97799602Y-65056099D01*
X97799608Y-65056099D01*
X97902397Y-65045599D01*
X98068934Y-64990414D01*
X98218256Y-64898312D01*
X98311919Y-64804649D01*
X98373242Y-64771164D01*
X98442934Y-64776148D01*
X98487281Y-64804649D01*
X98580944Y-64898312D01*
X98730266Y-64990414D01*
X98896803Y-65045599D01*
X98999591Y-65056100D01*
X99505936Y-65056099D01*
X99535382Y-65064745D01*
X99565363Y-65071267D01*
X99570376Y-65075019D01*
X99572975Y-65075783D01*
X99593617Y-65092418D01*
X99761666Y-65260467D01*
X99795151Y-65321790D01*
X99790167Y-65391482D01*
X99748295Y-65447415D01*
X99682831Y-65471832D01*
X99661396Y-65471507D01*
X99658401Y-65471201D01*
X99658374Y-65471200D01*
X99208400Y-65471200D01*
X99208400Y-67621199D01*
X99274137Y-67621199D01*
X99341176Y-67640884D01*
X99386931Y-67693688D01*
X99396875Y-67762846D01*
X99367850Y-67826402D01*
X99361818Y-67832880D01*
X98810316Y-68384381D01*
X98748993Y-68417866D01*
X98722635Y-68420700D01*
X98258398Y-68420700D01*
X98258380Y-68420701D01*
X98155603Y-68431200D01*
X98155600Y-68431201D01*
X97989068Y-68486385D01*
X97989063Y-68486387D01*
X97839742Y-68578489D01*
X97715689Y-68702542D01*
X97623587Y-68851863D01*
X97623585Y-68851868D01*
X97605268Y-68907145D01*
X97568401Y-69018403D01*
X97568401Y-69018404D01*
X97568400Y-69018404D01*
X97557900Y-69121183D01*
X97557900Y-69871201D01*
X97557901Y-69871219D01*
X97568400Y-69973996D01*
X97568401Y-69973999D01*
X97623585Y-70140531D01*
X97623586Y-70140534D01*
X97715688Y-70289856D01*
X97839744Y-70413912D01*
X97989066Y-70506014D01*
X98155603Y-70561199D01*
X98258391Y-70571700D01*
X99027236Y-70571699D01*
X99094275Y-70591383D01*
X99114917Y-70608018D01*
X100088181Y-71581282D01*
X100102884Y-71608209D01*
X100119477Y-71634028D01*
X100120368Y-71640228D01*
X100121666Y-71642605D01*
X100124500Y-71668963D01*
X100124500Y-71828300D01*
X100104815Y-71895339D01*
X100052011Y-71941094D01*
X100000500Y-71952300D01*
X99692130Y-71952300D01*
X99692123Y-71952301D01*
X99632516Y-71958708D01*
X99497671Y-72009002D01*
X99497664Y-72009006D01*
X99382455Y-72095252D01*
X99382452Y-72095255D01*
X99296206Y-72210464D01*
X99296202Y-72210471D01*
X99245908Y-72345317D01*
X99239501Y-72404916D01*
X99239501Y-72404923D01*
X99239500Y-72404935D01*
X99239500Y-74000670D01*
X99239501Y-74000676D01*
X99245908Y-74060283D01*
X99296202Y-74195128D01*
X99296206Y-74195135D01*
X99382452Y-74310344D01*
X99382455Y-74310347D01*
X99497664Y-74396593D01*
X99497671Y-74396597D01*
X99632517Y-74446891D01*
X99632516Y-74446891D01*
X99639444Y-74447635D01*
X99692127Y-74453300D01*
X101907872Y-74453299D01*
X101967483Y-74446891D01*
X102102331Y-74396596D01*
X102217546Y-74310346D01*
X102303796Y-74195131D01*
X102354091Y-74060283D01*
X102360500Y-74000673D01*
X102360499Y-72648961D01*
X102380184Y-72581923D01*
X102396813Y-72561286D01*
X106255322Y-68702778D01*
X106316643Y-68669295D01*
X106386335Y-68674279D01*
X106442268Y-68716151D01*
X106466685Y-68781615D01*
X106467001Y-68790461D01*
X106467001Y-68920018D01*
X106477500Y-69022796D01*
X106477501Y-69022799D01*
X106510106Y-69121192D01*
X106532686Y-69189334D01*
X106624788Y-69338656D01*
X106748844Y-69462712D01*
X106898166Y-69554814D01*
X107064703Y-69609999D01*
X107167491Y-69620500D01*
X109367508Y-69620499D01*
X109470297Y-69609999D01*
X109636834Y-69554814D01*
X109786156Y-69462712D01*
X109910212Y-69338656D01*
X110002314Y-69189334D01*
X110057499Y-69022797D01*
X110068000Y-68920009D01*
X110067999Y-66719992D01*
X110061102Y-66652479D01*
X110057499Y-66617203D01*
X110057498Y-66617200D01*
X110053051Y-66603779D01*
X110002314Y-66450666D01*
X109910212Y-66301344D01*
X109786156Y-66177288D01*
X109636834Y-66085186D01*
X109470297Y-66030001D01*
X109470295Y-66030000D01*
X109367510Y-66019500D01*
X107167498Y-66019500D01*
X107167481Y-66019501D01*
X107064703Y-66030000D01*
X107064700Y-66030001D01*
X106898168Y-66085185D01*
X106898163Y-66085187D01*
X106748842Y-66177289D01*
X106624789Y-66301342D01*
X106532687Y-66450663D01*
X106532685Y-66450668D01*
X106526634Y-66468929D01*
X106477501Y-66617203D01*
X106477501Y-66617204D01*
X106477500Y-66617204D01*
X106467000Y-66719983D01*
X106467000Y-67020500D01*
X106447315Y-67087539D01*
X106394511Y-67133294D01*
X106343000Y-67144500D01*
X106116264Y-67144500D01*
X105985771Y-67170456D01*
X105985767Y-67170458D01*
X105985765Y-67170458D01*
X105985764Y-67170459D01*
X105952650Y-67184175D01*
X105898834Y-67206466D01*
X105898833Y-67206465D01*
X105862834Y-67221378D01*
X105781784Y-67275534D01*
X105752191Y-67295306D01*
X105752188Y-67295309D01*
X101687181Y-71360317D01*
X101625858Y-71393802D01*
X101556166Y-71388818D01*
X101500233Y-71346946D01*
X101475816Y-71281482D01*
X101475500Y-71272636D01*
X101475500Y-71271268D01*
X101475499Y-71271264D01*
X101449541Y-71140764D01*
X101400944Y-71023443D01*
X101399300Y-71018848D01*
X101324698Y-70907198D01*
X101324697Y-70907197D01*
X101324695Y-70907194D01*
X101230606Y-70813105D01*
X100394059Y-69976558D01*
X100360574Y-69915235D01*
X100358383Y-69876266D01*
X100358900Y-69871209D01*
X100358899Y-69121192D01*
X100348399Y-69018403D01*
X100307369Y-68894585D01*
X100304968Y-68824762D01*
X100337393Y-68767906D01*
X101574695Y-67530606D01*
X101648620Y-67419969D01*
X101699540Y-67297036D01*
X101712027Y-67234263D01*
X101725500Y-67166533D01*
X101725500Y-65526970D01*
X101724573Y-65522309D01*
X101722240Y-65510580D01*
X101699541Y-65396464D01*
X101650944Y-65279143D01*
X101649300Y-65274548D01*
X101574698Y-65162898D01*
X101574697Y-65162897D01*
X101574695Y-65162894D01*
X101480606Y-65068805D01*
X100361418Y-63949617D01*
X100327933Y-63888294D01*
X100325099Y-63861936D01*
X100325099Y-63355598D01*
X100325098Y-63355581D01*
X100314599Y-63252803D01*
X100314598Y-63252800D01*
X100307097Y-63230165D01*
X100259414Y-63086266D01*
X100167312Y-62936944D01*
X100043256Y-62812888D01*
X100043255Y-62812887D01*
X99982402Y-62775352D01*
X99975578Y-62767765D01*
X99966297Y-62763527D01*
X99952609Y-62742228D01*
X99935678Y-62723404D01*
X99933033Y-62711767D01*
X99928523Y-62704749D01*
X99923500Y-62669814D01*
X99923500Y-62622014D01*
X106467500Y-62622014D01*
X106467500Y-62857985D01*
X106498299Y-63091914D01*
X106559370Y-63319837D01*
X106649660Y-63537819D01*
X106649665Y-63537828D01*
X106767644Y-63742171D01*
X106767645Y-63742172D01*
X106830221Y-63823723D01*
X107666458Y-62987487D01*
X107691478Y-63047890D01*
X107762612Y-63154351D01*
X107853149Y-63244888D01*
X107959610Y-63316022D01*
X108020011Y-63341041D01*
X107183775Y-64177277D01*
X107265327Y-64239854D01*
X107265328Y-64239855D01*
X107469671Y-64357834D01*
X107469680Y-64357839D01*
X107687663Y-64448129D01*
X107687661Y-64448129D01*
X107915585Y-64509200D01*
X108149514Y-64539999D01*
X108149529Y-64540000D01*
X108385471Y-64540000D01*
X108385485Y-64539999D01*
X108619414Y-64509200D01*
X108847337Y-64448129D01*
X109065319Y-64357839D01*
X109065328Y-64357834D01*
X109269681Y-64239850D01*
X109351223Y-64177279D01*
X109351223Y-64177276D01*
X108514987Y-63341041D01*
X108575390Y-63316022D01*
X108681851Y-63244888D01*
X108772388Y-63154351D01*
X108843522Y-63047890D01*
X108868541Y-62987487D01*
X109704776Y-63823723D01*
X109704779Y-63823723D01*
X109767350Y-63742181D01*
X109885334Y-63537828D01*
X109885339Y-63537819D01*
X109975629Y-63319837D01*
X110036700Y-63091914D01*
X110067499Y-62857985D01*
X110067500Y-62857971D01*
X110067500Y-62622028D01*
X110067499Y-62622014D01*
X110036700Y-62388085D01*
X109975629Y-62160162D01*
X109885339Y-61942180D01*
X109885334Y-61942171D01*
X109767355Y-61737828D01*
X109767354Y-61737827D01*
X109704777Y-61656275D01*
X108868541Y-62492511D01*
X108843522Y-62432110D01*
X108772388Y-62325649D01*
X108681851Y-62235112D01*
X108575390Y-62163978D01*
X108514988Y-62138958D01*
X109351223Y-61302721D01*
X109269672Y-61240145D01*
X109269671Y-61240144D01*
X109065328Y-61122165D01*
X109065319Y-61122160D01*
X108847336Y-61031870D01*
X108847338Y-61031870D01*
X108619414Y-60970799D01*
X108385485Y-60940000D01*
X108149514Y-60940000D01*
X107915585Y-60970799D01*
X107687662Y-61031870D01*
X107469680Y-61122160D01*
X107469671Y-61122165D01*
X107265328Y-61240144D01*
X107265318Y-61240150D01*
X107183775Y-61302720D01*
X107183775Y-61302721D01*
X108020012Y-62138958D01*
X107959610Y-62163978D01*
X107853149Y-62235112D01*
X107762612Y-62325649D01*
X107691478Y-62432110D01*
X107666458Y-62492512D01*
X106830221Y-61656275D01*
X106830220Y-61656275D01*
X106767650Y-61737818D01*
X106767644Y-61737828D01*
X106649665Y-61942171D01*
X106649660Y-61942180D01*
X106559370Y-62160162D01*
X106498299Y-62388085D01*
X106467500Y-62622014D01*
X99923500Y-62622014D01*
X99923500Y-62325067D01*
X99943185Y-62258028D01*
X99962386Y-62236856D01*
X99961549Y-62236019D01*
X99992053Y-62205515D01*
X100090712Y-62106856D01*
X100182814Y-61957534D01*
X100237999Y-61790997D01*
X100248500Y-61688209D01*
X100248499Y-61163200D01*
X100248499Y-60638198D01*
X100248498Y-60638180D01*
X100237999Y-60535403D01*
X100237998Y-60535400D01*
X100182814Y-60368866D01*
X100090712Y-60219544D01*
X99966656Y-60095488D01*
X99817334Y-60003386D01*
X99650797Y-59948201D01*
X99650795Y-59948200D01*
X99548010Y-59937700D01*
X98947998Y-59937700D01*
X98947980Y-59937701D01*
X98845203Y-59948200D01*
X98845200Y-59948201D01*
X98678668Y-60003385D01*
X98678663Y-60003387D01*
X98529342Y-60095489D01*
X98405285Y-60219546D01*
X98403537Y-60222382D01*
X98401829Y-60223917D01*
X98400807Y-60225211D01*
X98400585Y-60225036D01*
X98351589Y-60269105D01*
X98282626Y-60280326D01*
X98218544Y-60252482D01*
X98192463Y-60222382D01*
X98190714Y-60219546D01*
X98066657Y-60095489D01*
X98066656Y-60095488D01*
X97917334Y-60003386D01*
X97750797Y-59948201D01*
X97750795Y-59948200D01*
X97648010Y-59937700D01*
X97047998Y-59937700D01*
X97047980Y-59937701D01*
X96945203Y-59948200D01*
X96945200Y-59948201D01*
X96778668Y-60003385D01*
X96778663Y-60003387D01*
X96629342Y-60095489D01*
X96505289Y-60219542D01*
X96413187Y-60368863D01*
X96413185Y-60368868D01*
X96404831Y-60394080D01*
X96358001Y-60535403D01*
X96358001Y-60535404D01*
X96358000Y-60535404D01*
X96347500Y-60638183D01*
X96347500Y-61688201D01*
X96347501Y-61688219D01*
X96358000Y-61790996D01*
X96358001Y-61790999D01*
X96404832Y-61932324D01*
X96413186Y-61957534D01*
X96505288Y-62106856D01*
X96629344Y-62230912D01*
X96688596Y-62267458D01*
X96735321Y-62319404D01*
X96747500Y-62372997D01*
X96747500Y-62769970D01*
X96727815Y-62837009D01*
X96711181Y-62857651D01*
X96631889Y-62936942D01*
X96539787Y-63086263D01*
X96539786Y-63086266D01*
X96484601Y-63252803D01*
X96484601Y-63252804D01*
X96484600Y-63252804D01*
X96474100Y-63355583D01*
X96474100Y-63968002D01*
X96454415Y-64035041D01*
X96437781Y-64055683D01*
X96081981Y-64411482D01*
X96081979Y-64411484D01*
X96062942Y-64444458D01*
X96054895Y-64458397D01*
X96002923Y-64548415D01*
X95961999Y-64701143D01*
X95961999Y-64701145D01*
X95961999Y-64869246D01*
X95962000Y-64869259D01*
X95962000Y-65025270D01*
X95942315Y-65092309D01*
X95925685Y-65112946D01*
X95875738Y-65162894D01*
X95862327Y-65176305D01*
X95801003Y-65209789D01*
X95731312Y-65204804D01*
X95686965Y-65176304D01*
X95593345Y-65082684D01*
X95444124Y-64990643D01*
X95444119Y-64990641D01*
X95277697Y-64935494D01*
X95277690Y-64935493D01*
X95174986Y-64925000D01*
X95112500Y-64925000D01*
X95112500Y-67376361D01*
X95108277Y-67376361D01*
X95105145Y-67420158D01*
X95063273Y-67476091D01*
X95032297Y-67493005D01*
X94969575Y-67516399D01*
X94969564Y-67516405D01*
X94854355Y-67602651D01*
X94854352Y-67602654D01*
X94768106Y-67717863D01*
X94768102Y-67717870D01*
X94717810Y-67852712D01*
X94717809Y-67852716D01*
X94711400Y-67912326D01*
X94162999Y-67912326D01*
X94156591Y-67852716D01*
X94156502Y-67852478D01*
X94106297Y-67717870D01*
X94106293Y-67717863D01*
X94020047Y-67602654D01*
X94020044Y-67602651D01*
X93904835Y-67516405D01*
X93904828Y-67516401D01*
X93769982Y-67466107D01*
X93769984Y-67466107D01*
X93718017Y-67460520D01*
X93713102Y-67458484D01*
X93707808Y-67458990D01*
X93681161Y-67445253D01*
X93653466Y-67433781D01*
X93649167Y-67428759D01*
X93645705Y-67426975D01*
X93623888Y-67399232D01*
X93587138Y-67335581D01*
X93587136Y-67335579D01*
X93582953Y-67328333D01*
X93552470Y-67275534D01*
X93440666Y-67163730D01*
X93440665Y-67163729D01*
X93436335Y-67159399D01*
X93436324Y-67159389D01*
X92901921Y-66624986D01*
X93850001Y-66624986D01*
X93860494Y-66727697D01*
X93915641Y-66894119D01*
X93915643Y-66894124D01*
X94007684Y-67043345D01*
X94131654Y-67167315D01*
X94280875Y-67259356D01*
X94280880Y-67259358D01*
X94447302Y-67314505D01*
X94447309Y-67314506D01*
X94550019Y-67324999D01*
X94612499Y-67324998D01*
X94612500Y-67324998D01*
X94612500Y-66375000D01*
X93850001Y-66375000D01*
X93850001Y-66624986D01*
X92901921Y-66624986D01*
X92022819Y-65745884D01*
X92008115Y-65718956D01*
X91991523Y-65693138D01*
X91990631Y-65686937D01*
X91989334Y-65684561D01*
X91986500Y-65658203D01*
X91986500Y-65625013D01*
X93850000Y-65625013D01*
X93850000Y-65875000D01*
X94612500Y-65875000D01*
X94612500Y-64925000D01*
X94612499Y-64924999D01*
X94550028Y-64925000D01*
X94550011Y-64925001D01*
X94447302Y-64935494D01*
X94280880Y-64990641D01*
X94280875Y-64990643D01*
X94131654Y-65082684D01*
X94007684Y-65206654D01*
X93915643Y-65355875D01*
X93915641Y-65355880D01*
X93860494Y-65522302D01*
X93860493Y-65522309D01*
X93850000Y-65625013D01*
X91986500Y-65625013D01*
X91986500Y-65245300D01*
X92006185Y-65178261D01*
X92058989Y-65132506D01*
X92110500Y-65121300D01*
X92351686Y-65121300D01*
X92351694Y-65121300D01*
X92388569Y-65118398D01*
X92388571Y-65118397D01*
X92388573Y-65118397D01*
X92434347Y-65105098D01*
X92546398Y-65072544D01*
X92687865Y-64988881D01*
X92804081Y-64872665D01*
X92887744Y-64731198D01*
X92933598Y-64573369D01*
X92936500Y-64536494D01*
X92936500Y-63230106D01*
X92933598Y-63193231D01*
X92922302Y-63154351D01*
X92887745Y-63035406D01*
X92887745Y-63035405D01*
X92887744Y-63035403D01*
X92887744Y-63035402D01*
X92842067Y-62958166D01*
X92824800Y-62895046D01*
X92824800Y-62309448D01*
X92844485Y-62242409D01*
X92875796Y-62211671D01*
X92874787Y-62210395D01*
X92880454Y-62205913D01*
X92880453Y-62205913D01*
X92880456Y-62205912D01*
X93004512Y-62081856D01*
X93096614Y-61932534D01*
X93151799Y-61765997D01*
X93162300Y-61663209D01*
X93162299Y-60663192D01*
X93151799Y-60560403D01*
X93096614Y-60393866D01*
X93004512Y-60244544D01*
X92880456Y-60120488D01*
X92731134Y-60028386D01*
X92564597Y-59973201D01*
X92564595Y-59973200D01*
X92461816Y-59962700D01*
X92461809Y-59962700D01*
X91955463Y-59962700D01*
X91888424Y-59943015D01*
X91867782Y-59926381D01*
X90741709Y-58800307D01*
X90741705Y-58800304D01*
X90631075Y-58726383D01*
X90631065Y-58726378D01*
X90508136Y-58675459D01*
X90508128Y-58675457D01*
X90377635Y-58649500D01*
X90377631Y-58649500D01*
X88366531Y-58649500D01*
X88233469Y-58649500D01*
X88233467Y-58649500D01*
X88102969Y-58675458D01*
X88102959Y-58675461D01*
X87980038Y-58726376D01*
X87980020Y-58726386D01*
X87869398Y-58800301D01*
X87869390Y-58800307D01*
X84919298Y-61750399D01*
X84857975Y-61783884D01*
X84824439Y-61785696D01*
X84824398Y-61786478D01*
X84821073Y-61786300D01*
X83469363Y-61786300D01*
X83402324Y-61766615D01*
X83381682Y-61749981D01*
X80031818Y-58400117D01*
X79998333Y-58338794D01*
X79995499Y-58312436D01*
X79995499Y-56557498D01*
X79995498Y-56557481D01*
X79984999Y-56454703D01*
X79984998Y-56454700D01*
X79929814Y-56288166D01*
X79837712Y-56138844D01*
X79713656Y-56014788D01*
X79564334Y-55922686D01*
X79397797Y-55867501D01*
X79397795Y-55867500D01*
X79295010Y-55857000D01*
X77094998Y-55857000D01*
X77094981Y-55857001D01*
X76992203Y-55867500D01*
X76992200Y-55867501D01*
X76825668Y-55922685D01*
X76825663Y-55922687D01*
X76676342Y-56014789D01*
X76552289Y-56138842D01*
X76460187Y-56288163D01*
X76460186Y-56288166D01*
X76405001Y-56454703D01*
X76405001Y-56454704D01*
X76405000Y-56454704D01*
X76394500Y-56557483D01*
X76394500Y-58757501D01*
X76394501Y-58757518D01*
X76405000Y-58860296D01*
X76405001Y-58860299D01*
X76460185Y-59026831D01*
X76460186Y-59026834D01*
X76552288Y-59176156D01*
X76676344Y-59300212D01*
X76825666Y-59392314D01*
X76992203Y-59447499D01*
X77094991Y-59458000D01*
X79127736Y-59457999D01*
X79194775Y-59477684D01*
X79215417Y-59494318D01*
X82736381Y-63015282D01*
X82769866Y-63076605D01*
X82772700Y-63102963D01*
X82772700Y-64454670D01*
X82772701Y-64454676D01*
X82779108Y-64514283D01*
X82829402Y-64649128D01*
X82829406Y-64649135D01*
X82915652Y-64764344D01*
X82915655Y-64764347D01*
X83030864Y-64850593D01*
X83030871Y-64850597D01*
X83165717Y-64900891D01*
X83165716Y-64900891D01*
X83172644Y-64901635D01*
X83225327Y-64907300D01*
X84821072Y-64907299D01*
X84880683Y-64900891D01*
X85015531Y-64850596D01*
X85130746Y-64764346D01*
X85216996Y-64649131D01*
X85259024Y-64536449D01*
X89436000Y-64536449D01*
X89438899Y-64573289D01*
X89438900Y-64573295D01*
X89484716Y-64730993D01*
X89484717Y-64730996D01*
X89568314Y-64872352D01*
X89568321Y-64872361D01*
X89684438Y-64988478D01*
X89684447Y-64988485D01*
X89825801Y-65072081D01*
X89983514Y-65117900D01*
X89983511Y-65117900D01*
X89985998Y-65118095D01*
X89986000Y-65118095D01*
X89986000Y-64133300D01*
X89436000Y-64133300D01*
X89436000Y-64536449D01*
X85259024Y-64536449D01*
X85267291Y-64514283D01*
X85273700Y-64454673D01*
X85273699Y-63861936D01*
X85273699Y-63357962D01*
X85282345Y-63328515D01*
X85288867Y-63298535D01*
X85292619Y-63293521D01*
X85293383Y-63290923D01*
X85310013Y-63270286D01*
X85350149Y-63230150D01*
X89436000Y-63230150D01*
X89436000Y-63633300D01*
X89986000Y-63633300D01*
X90486000Y-63633300D01*
X91036000Y-63633300D01*
X91036000Y-63230165D01*
X91035999Y-63230150D01*
X91033100Y-63193310D01*
X91033099Y-63193304D01*
X90987283Y-63035606D01*
X90987282Y-63035603D01*
X90903685Y-62894247D01*
X90903678Y-62894238D01*
X90787561Y-62778121D01*
X90787552Y-62778114D01*
X90646196Y-62694517D01*
X90646193Y-62694516D01*
X90488494Y-62648700D01*
X90488497Y-62648700D01*
X90486000Y-62648503D01*
X90486000Y-63633300D01*
X89986000Y-63633300D01*
X89986000Y-62648503D01*
X89983503Y-62648700D01*
X89825806Y-62694516D01*
X89825803Y-62694517D01*
X89684447Y-62778114D01*
X89684438Y-62778121D01*
X89568321Y-62894238D01*
X89568314Y-62894247D01*
X89484717Y-63035603D01*
X89484716Y-63035606D01*
X89438900Y-63193304D01*
X89438899Y-63193310D01*
X89436000Y-63230150D01*
X85350149Y-63230150D01*
X86917114Y-61663186D01*
X89311801Y-61663186D01*
X89322294Y-61765897D01*
X89377441Y-61932319D01*
X89377443Y-61932324D01*
X89469484Y-62081545D01*
X89593454Y-62205515D01*
X89742675Y-62297556D01*
X89742680Y-62297558D01*
X89909102Y-62352705D01*
X89909109Y-62352706D01*
X90011819Y-62363199D01*
X90074299Y-62363198D01*
X90074300Y-62363198D01*
X90074300Y-61413200D01*
X89311801Y-61413200D01*
X89311801Y-61663186D01*
X86917114Y-61663186D01*
X88543482Y-60036819D01*
X88604805Y-60003334D01*
X88631163Y-60000500D01*
X89414477Y-60000500D01*
X89481516Y-60020185D01*
X89527271Y-60072989D01*
X89537215Y-60142147D01*
X89508190Y-60205703D01*
X89502158Y-60212181D01*
X89469484Y-60244854D01*
X89377443Y-60394075D01*
X89377441Y-60394080D01*
X89322294Y-60560502D01*
X89322293Y-60560509D01*
X89311800Y-60663213D01*
X89311800Y-60913200D01*
X90200300Y-60913200D01*
X90267339Y-60932885D01*
X90313094Y-60985689D01*
X90324300Y-61037200D01*
X90324300Y-61163200D01*
X90450300Y-61163200D01*
X90517339Y-61182885D01*
X90563094Y-61235689D01*
X90574300Y-61287200D01*
X90574300Y-62363199D01*
X90636772Y-62363199D01*
X90636786Y-62363198D01*
X90739497Y-62352705D01*
X90905919Y-62297558D01*
X90905924Y-62297556D01*
X91055142Y-62205517D01*
X91148764Y-62111895D01*
X91155855Y-62108022D01*
X91160596Y-62101480D01*
X91186075Y-62091521D01*
X91210087Y-62078410D01*
X91218146Y-62078986D01*
X91225672Y-62076045D01*
X91252491Y-62081442D01*
X91279779Y-62083394D01*
X91288003Y-62088589D01*
X91294168Y-62089830D01*
X91319485Y-62108476D01*
X91322749Y-62110538D01*
X91323432Y-62111200D01*
X91418144Y-62205912D01*
X91426397Y-62211002D01*
X91436103Y-62220410D01*
X91446928Y-62239521D01*
X91461620Y-62255854D01*
X91465264Y-62271889D01*
X91470540Y-62281203D01*
X91469916Y-62292360D01*
X91473800Y-62309448D01*
X91473800Y-62850068D01*
X91456532Y-62913189D01*
X91384255Y-63035403D01*
X91384254Y-63035406D01*
X91338402Y-63193226D01*
X91338401Y-63193232D01*
X91335500Y-63230098D01*
X91335500Y-64396300D01*
X91332949Y-64404985D01*
X91334238Y-64413947D01*
X91323259Y-64437987D01*
X91315815Y-64463339D01*
X91308974Y-64469266D01*
X91305213Y-64477503D01*
X91282978Y-64491792D01*
X91263011Y-64509094D01*
X91252496Y-64511381D01*
X91246435Y-64515277D01*
X91211500Y-64520300D01*
X91160000Y-64520300D01*
X91092961Y-64500615D01*
X91047206Y-64447811D01*
X91036000Y-64396300D01*
X91036000Y-64133300D01*
X90486000Y-64133300D01*
X90486000Y-64788984D01*
X90468733Y-64852104D01*
X90434254Y-64910405D01*
X90434254Y-64910406D01*
X90388402Y-65068226D01*
X90388401Y-65068232D01*
X90385500Y-65105098D01*
X90385500Y-65266600D01*
X90365815Y-65333639D01*
X90313011Y-65379394D01*
X90261500Y-65390600D01*
X88822508Y-65390600D01*
X88755469Y-65370915D01*
X88716969Y-65331697D01*
X88672712Y-65259944D01*
X88548656Y-65135888D01*
X88439898Y-65068806D01*
X88399336Y-65043787D01*
X88399331Y-65043785D01*
X88397862Y-65043298D01*
X88232797Y-64988601D01*
X88232795Y-64988600D01*
X88130010Y-64978100D01*
X87129998Y-64978100D01*
X87129980Y-64978101D01*
X87027203Y-64988600D01*
X87027200Y-64988601D01*
X86860668Y-65043785D01*
X86860663Y-65043787D01*
X86711342Y-65135889D01*
X86587289Y-65259942D01*
X86495187Y-65409263D01*
X86495185Y-65409268D01*
X86474663Y-65471200D01*
X86440001Y-65575803D01*
X86440001Y-65575804D01*
X86440000Y-65575804D01*
X86429500Y-65678583D01*
X86429500Y-66303601D01*
X86429501Y-66303619D01*
X86440000Y-66406396D01*
X86440001Y-66406399D01*
X86480803Y-66529530D01*
X86495186Y-66572934D01*
X86585895Y-66719998D01*
X86587289Y-66722257D01*
X86680951Y-66815919D01*
X86714436Y-66877242D01*
X86709452Y-66946934D01*
X86680951Y-66991281D01*
X86587289Y-67084942D01*
X86495187Y-67234263D01*
X86495185Y-67234268D01*
X86488500Y-67254443D01*
X86440001Y-67400803D01*
X86440001Y-67400804D01*
X86440000Y-67400804D01*
X86429500Y-67503583D01*
X86429500Y-68128601D01*
X86429501Y-68128619D01*
X86440000Y-68231396D01*
X86440001Y-68231399D01*
X86495185Y-68397931D01*
X86495187Y-68397936D01*
X86515705Y-68431201D01*
X86587288Y-68547256D01*
X86711344Y-68671312D01*
X86860666Y-68763414D01*
X87027203Y-68818599D01*
X87129991Y-68829100D01*
X88130008Y-68829099D01*
X88147106Y-68827352D01*
X88215797Y-68840118D01*
X88247393Y-68863028D01*
X88660984Y-69276619D01*
X88694469Y-69337942D01*
X88689485Y-69407634D01*
X88647613Y-69463567D01*
X88582149Y-69487984D01*
X88573303Y-69488300D01*
X87653947Y-69488300D01*
X87653931Y-69488299D01*
X87646335Y-69488299D01*
X87488221Y-69488299D01*
X87418470Y-69506989D01*
X87335494Y-69529222D01*
X87291167Y-69554815D01*
X87291166Y-69554814D01*
X87198565Y-69608277D01*
X87198560Y-69608281D01*
X85512781Y-71294060D01*
X85512779Y-71294063D01*
X85462661Y-71380872D01*
X85462659Y-71380874D01*
X85433725Y-71430987D01*
X85433724Y-71430988D01*
X85433723Y-71430993D01*
X85392799Y-71583721D01*
X85392799Y-71583723D01*
X85392799Y-71751824D01*
X85392800Y-71751837D01*
X85392800Y-72792000D01*
X85373115Y-72859039D01*
X85343112Y-72891266D01*
X85231452Y-72974855D01*
X85145206Y-73090064D01*
X85145202Y-73090071D01*
X85094908Y-73224917D01*
X85088501Y-73284516D01*
X85088500Y-73284535D01*
X85088500Y-76316901D01*
X85068815Y-76383940D01*
X85052181Y-76404582D01*
X84384313Y-77072450D01*
X84384306Y-77072457D01*
X84381286Y-77075478D01*
X84381284Y-77075480D01*
X84269480Y-77187284D01*
X84246261Y-77227501D01*
X84190423Y-77324215D01*
X84149499Y-77476943D01*
X84149499Y-77476945D01*
X84149499Y-77645046D01*
X84149500Y-77645059D01*
X84149500Y-78713330D01*
X84149499Y-78713348D01*
X84149499Y-78879054D01*
X84149498Y-78879054D01*
X84154984Y-78899528D01*
X84186595Y-79017500D01*
X84190424Y-79031787D01*
X84204622Y-79056378D01*
X84204623Y-79056380D01*
X84269477Y-79168712D01*
X84269479Y-79168715D01*
X84269480Y-79168716D01*
X84381284Y-79280520D01*
X84381285Y-79280521D01*
X84806284Y-79705520D01*
X84806286Y-79705521D01*
X84806290Y-79705524D01*
X84943209Y-79784573D01*
X84943216Y-79784577D01*
X85095943Y-79825501D01*
X85095945Y-79825501D01*
X85261654Y-79825501D01*
X85261670Y-79825500D01*
X85774903Y-79825500D01*
X85841942Y-79845185D01*
X85862584Y-79861819D01*
X87738181Y-81737416D01*
X87752884Y-81764343D01*
X87769477Y-81790162D01*
X87770368Y-81796362D01*
X87771666Y-81798739D01*
X87774500Y-81825097D01*
X87774500Y-81838330D01*
X87774499Y-81838348D01*
X87774499Y-82004061D01*
X87791374Y-82067041D01*
X87790757Y-82092898D01*
X87794068Y-82118555D01*
X87789836Y-82131573D01*
X87789710Y-82136890D01*
X87783635Y-82152272D01*
X87782866Y-82153892D01*
X87702105Y-82312394D01*
X87689964Y-82349760D01*
X87686536Y-82356988D01*
X87668384Y-82377332D01*
X87652993Y-82399842D01*
X87645463Y-82403024D01*
X87640021Y-82409124D01*
X87613749Y-82416426D01*
X87588634Y-82427040D01*
X87580579Y-82425646D01*
X87572704Y-82427835D01*
X87546656Y-82419775D01*
X87519788Y-82415125D01*
X87513765Y-82409597D01*
X87505956Y-82407181D01*
X87488401Y-82386318D01*
X87468312Y-82367881D01*
X87466052Y-82359759D01*
X87460971Y-82353720D01*
X87458028Y-82330912D01*
X87450500Y-82303848D01*
X87450500Y-82251577D01*
X87419709Y-82057173D01*
X87380870Y-81937641D01*
X87358884Y-81869975D01*
X87358882Y-81869972D01*
X87358882Y-81869970D01*
X87269523Y-81694594D01*
X87153828Y-81535354D01*
X87014646Y-81396172D01*
X86855405Y-81280476D01*
X86680029Y-81191117D01*
X86492826Y-81130290D01*
X86298422Y-81099500D01*
X86298417Y-81099500D01*
X86101583Y-81099500D01*
X86101578Y-81099500D01*
X85907173Y-81130290D01*
X85719970Y-81191117D01*
X85544594Y-81280476D01*
X85527061Y-81293215D01*
X85385354Y-81396172D01*
X85385352Y-81396174D01*
X85385351Y-81396174D01*
X85246174Y-81535351D01*
X85246174Y-81535352D01*
X85246172Y-81535354D01*
X85234002Y-81552105D01*
X85130476Y-81694594D01*
X85041117Y-81869970D01*
X84980290Y-82057173D01*
X84949500Y-82251577D01*
X84949500Y-83448422D01*
X84980290Y-83642826D01*
X85041117Y-83830029D01*
X85086065Y-83918243D01*
X85130476Y-84005405D01*
X85246172Y-84164646D01*
X85246174Y-84164648D01*
X85344345Y-84262819D01*
X85377830Y-84324142D01*
X85372846Y-84393834D01*
X85330974Y-84449767D01*
X85265510Y-84474184D01*
X85256664Y-84474500D01*
X82131163Y-84474500D01*
X82064124Y-84454815D01*
X82043482Y-84438181D01*
X78082029Y-80476728D01*
X78048544Y-80415405D01*
X78052003Y-80350048D01*
X78094999Y-80220297D01*
X78105500Y-80117509D01*
X78105499Y-78899514D01*
X79585000Y-78899514D01*
X79585000Y-79135485D01*
X79615799Y-79369414D01*
X79676870Y-79597337D01*
X79767160Y-79815319D01*
X79767165Y-79815328D01*
X79885144Y-80019671D01*
X79885145Y-80019672D01*
X79947721Y-80101223D01*
X80783958Y-79264987D01*
X80808978Y-79325390D01*
X80880112Y-79431851D01*
X80970649Y-79522388D01*
X81077110Y-79593522D01*
X81137511Y-79618541D01*
X80301275Y-80454777D01*
X80382827Y-80517354D01*
X80382828Y-80517355D01*
X80587171Y-80635334D01*
X80587180Y-80635339D01*
X80805163Y-80725629D01*
X80805161Y-80725629D01*
X81033085Y-80786700D01*
X81267014Y-80817499D01*
X81267029Y-80817500D01*
X81502971Y-80817500D01*
X81502985Y-80817499D01*
X81736914Y-80786700D01*
X81964837Y-80725629D01*
X82182819Y-80635339D01*
X82182828Y-80635334D01*
X82387181Y-80517350D01*
X82468723Y-80454779D01*
X82468723Y-80454776D01*
X81632487Y-79618541D01*
X81692890Y-79593522D01*
X81799351Y-79522388D01*
X81889888Y-79431851D01*
X81961022Y-79325390D01*
X81986041Y-79264987D01*
X82822276Y-80101223D01*
X82822279Y-80101223D01*
X82884850Y-80019681D01*
X83002834Y-79815328D01*
X83002839Y-79815319D01*
X83093129Y-79597337D01*
X83154200Y-79369414D01*
X83184999Y-79135485D01*
X83185000Y-79135471D01*
X83185000Y-78899528D01*
X83184999Y-78899514D01*
X83154200Y-78665585D01*
X83093129Y-78437662D01*
X83002839Y-78219680D01*
X83002834Y-78219671D01*
X82884855Y-78015328D01*
X82884854Y-78015327D01*
X82822277Y-77933775D01*
X81986041Y-78770011D01*
X81961022Y-78709610D01*
X81889888Y-78603149D01*
X81799351Y-78512612D01*
X81692890Y-78441478D01*
X81632488Y-78416458D01*
X82468723Y-77580221D01*
X82387172Y-77517645D01*
X82387171Y-77517644D01*
X82182828Y-77399665D01*
X82182819Y-77399660D01*
X81964836Y-77309370D01*
X81964838Y-77309370D01*
X81736914Y-77248299D01*
X81502985Y-77217500D01*
X81267014Y-77217500D01*
X81033085Y-77248299D01*
X80805162Y-77309370D01*
X80587180Y-77399660D01*
X80587171Y-77399665D01*
X80382828Y-77517644D01*
X80382818Y-77517650D01*
X80301275Y-77580220D01*
X80301275Y-77580221D01*
X81137512Y-78416458D01*
X81077110Y-78441478D01*
X80970649Y-78512612D01*
X80880112Y-78603149D01*
X80808978Y-78709610D01*
X80783958Y-78770011D01*
X79947721Y-77933775D01*
X79947720Y-77933775D01*
X79885150Y-78015318D01*
X79885144Y-78015328D01*
X79767165Y-78219671D01*
X79767160Y-78219680D01*
X79676870Y-78437662D01*
X79615799Y-78665585D01*
X79585000Y-78899514D01*
X78105499Y-78899514D01*
X78105499Y-77917492D01*
X78094999Y-77814703D01*
X78039814Y-77648166D01*
X77947712Y-77498844D01*
X77823656Y-77374788D01*
X77674334Y-77282686D01*
X77507797Y-77227501D01*
X77507795Y-77227500D01*
X77405016Y-77217000D01*
X77405009Y-77217000D01*
X77104500Y-77217000D01*
X77037461Y-77197315D01*
X76991706Y-77144511D01*
X76980500Y-77093000D01*
X76980500Y-75626162D01*
X77000185Y-75559123D01*
X77016814Y-75538486D01*
X83381682Y-69173617D01*
X83443005Y-69140133D01*
X83469363Y-69137299D01*
X84821071Y-69137299D01*
X84821072Y-69137299D01*
X84880683Y-69130891D01*
X85015531Y-69080596D01*
X85130746Y-68994346D01*
X85216996Y-68879131D01*
X85267291Y-68744283D01*
X85273700Y-68684673D01*
X85273699Y-66468928D01*
X85267291Y-66409317D01*
X85227868Y-66303619D01*
X85216997Y-66274471D01*
X85216993Y-66274464D01*
X85130747Y-66159255D01*
X85130744Y-66159252D01*
X85015535Y-66073006D01*
X85015528Y-66073002D01*
X84880682Y-66022708D01*
X84880683Y-66022708D01*
X84821083Y-66016301D01*
X84821081Y-66016300D01*
X84821073Y-66016300D01*
X84821064Y-66016300D01*
X83225329Y-66016300D01*
X83225323Y-66016301D01*
X83165716Y-66022708D01*
X83030871Y-66073002D01*
X83030864Y-66073006D01*
X82915655Y-66159252D01*
X82915652Y-66159255D01*
X82829406Y-66274464D01*
X82829402Y-66274471D01*
X82779108Y-66409317D01*
X82774663Y-66450666D01*
X82772701Y-66468923D01*
X82772700Y-66468935D01*
X82772700Y-67820636D01*
X82753015Y-67887675D01*
X82736381Y-67908317D01*
X75780307Y-74864390D01*
X75780304Y-74864394D01*
X75706383Y-74975024D01*
X75706378Y-74975034D01*
X75655459Y-75097963D01*
X75655457Y-75097971D01*
X75629500Y-75228464D01*
X75629500Y-77093000D01*
X75609815Y-77160039D01*
X75557011Y-77205794D01*
X75505500Y-77217000D01*
X75204999Y-77217000D01*
X75204980Y-77217001D01*
X75102203Y-77227500D01*
X75102200Y-77227501D01*
X74935668Y-77282685D01*
X74935663Y-77282687D01*
X74786342Y-77374789D01*
X74662289Y-77498842D01*
X74570187Y-77648163D01*
X74570185Y-77648168D01*
X74563886Y-77667178D01*
X74515001Y-77814703D01*
X74515001Y-77814704D01*
X74515000Y-77814704D01*
X74504500Y-77917483D01*
X74504500Y-80117501D01*
X74504501Y-80117518D01*
X74515000Y-80220296D01*
X74515001Y-80220299D01*
X74557994Y-80350042D01*
X74570186Y-80386834D01*
X74662288Y-80536156D01*
X74786344Y-80660212D01*
X74935666Y-80752314D01*
X75102203Y-80807499D01*
X75204991Y-80818000D01*
X76461336Y-80817999D01*
X76528375Y-80837684D01*
X76549017Y-80854318D01*
X81275305Y-85580606D01*
X81369394Y-85674695D01*
X81369397Y-85674697D01*
X81369398Y-85674698D01*
X81480020Y-85748613D01*
X81480024Y-85748615D01*
X81480031Y-85748620D01*
X81480034Y-85748621D01*
X81480037Y-85748623D01*
X81509772Y-85760939D01*
X81564176Y-85804779D01*
X81586241Y-85871073D01*
X81568962Y-85938773D01*
X81517825Y-85986384D01*
X81462320Y-85999500D01*
X63499500Y-85999500D01*
X63432461Y-85979815D01*
X63386706Y-85927011D01*
X63375500Y-85875500D01*
X63375500Y-57539514D01*
X71315000Y-57539514D01*
X71315000Y-57775485D01*
X71345799Y-58009414D01*
X71406870Y-58237337D01*
X71497160Y-58455319D01*
X71497165Y-58455328D01*
X71615144Y-58659671D01*
X71615145Y-58659672D01*
X71677721Y-58741223D01*
X72513958Y-57904987D01*
X72538978Y-57965390D01*
X72610112Y-58071851D01*
X72700649Y-58162388D01*
X72807110Y-58233522D01*
X72867511Y-58258541D01*
X72031275Y-59094777D01*
X72112827Y-59157354D01*
X72112828Y-59157355D01*
X72317171Y-59275334D01*
X72317180Y-59275339D01*
X72535163Y-59365629D01*
X72535161Y-59365629D01*
X72763085Y-59426700D01*
X72997014Y-59457499D01*
X72997029Y-59457500D01*
X73232971Y-59457500D01*
X73232985Y-59457499D01*
X73466914Y-59426700D01*
X73694837Y-59365629D01*
X73912819Y-59275339D01*
X73912828Y-59275334D01*
X74117181Y-59157350D01*
X74198723Y-59094779D01*
X74198723Y-59094776D01*
X73362487Y-58258541D01*
X73422890Y-58233522D01*
X73529351Y-58162388D01*
X73619888Y-58071851D01*
X73691022Y-57965390D01*
X73716041Y-57904987D01*
X74552276Y-58741223D01*
X74552279Y-58741223D01*
X74614850Y-58659681D01*
X74732834Y-58455328D01*
X74732839Y-58455319D01*
X74823129Y-58237337D01*
X74884200Y-58009414D01*
X74914999Y-57775485D01*
X74915000Y-57775471D01*
X74915000Y-57539528D01*
X74914999Y-57539514D01*
X74884200Y-57305585D01*
X74823129Y-57077662D01*
X74732839Y-56859680D01*
X74732834Y-56859671D01*
X74614855Y-56655328D01*
X74614854Y-56655327D01*
X74552277Y-56573775D01*
X73716041Y-57410011D01*
X73691022Y-57349610D01*
X73619888Y-57243149D01*
X73529351Y-57152612D01*
X73422890Y-57081478D01*
X73362488Y-57056458D01*
X74198723Y-56220221D01*
X74117172Y-56157645D01*
X74117171Y-56157644D01*
X73912828Y-56039665D01*
X73912819Y-56039660D01*
X73694836Y-55949370D01*
X73694838Y-55949370D01*
X73466914Y-55888299D01*
X73232985Y-55857500D01*
X72997014Y-55857500D01*
X72763085Y-55888299D01*
X72535162Y-55949370D01*
X72317180Y-56039660D01*
X72317171Y-56039665D01*
X72112828Y-56157644D01*
X72112818Y-56157650D01*
X72031275Y-56220220D01*
X72031275Y-56220221D01*
X72867512Y-57056458D01*
X72807110Y-57081478D01*
X72700649Y-57152612D01*
X72610112Y-57243149D01*
X72538978Y-57349610D01*
X72513958Y-57410011D01*
X71677721Y-56573775D01*
X71677720Y-56573775D01*
X71615150Y-56655318D01*
X71615144Y-56655328D01*
X71497165Y-56859671D01*
X71497160Y-56859680D01*
X71406870Y-57077662D01*
X71345799Y-57305585D01*
X71315000Y-57539514D01*
X63375500Y-57539514D01*
X63375500Y-50699500D01*
X63395185Y-50632461D01*
X63447989Y-50586706D01*
X63499500Y-50575500D01*
X116425500Y-50575500D01*
X116492539Y-50595185D01*
G37*
%TD.AperFunction*%
%TD*%
M02*
