%TF.GenerationSoftware,KiCad,Pcbnew,10.0.2*%
%TF.CreationDate,2026-06-04T11:42:47-04:00*%
%TF.ProjectId,solar_supplied_battery,736f6c61-725f-4737-9570-706c6965645f,rev?*%
%TF.SameCoordinates,Original*%
%TF.FileFunction,Legend,Top*%
%TF.FilePolarity,Positive*%
%FSLAX46Y46*%
G04 Gerber Fmt 4.6, Leading zero omitted, Abs format (unit mm)*
G04 Created by KiCad (PCBNEW 10.0.2) date 2026-06-04 11:42:47*
%MOMM*%
%LPD*%
G01*
G04 APERTURE LIST*
%ADD10C,0.191421*%
%ADD11C,0.100000*%
%ADD12C,0.150000*%
%ADD13C,0.127000*%
%ADD14C,0.200000*%
%ADD15C,0.120000*%
%ADD16C,0.000000*%
%ADD17C,0.250000*%
%ADD18C,0.060000*%
%ADD19C,0.152400*%
G04 APERTURE END LIST*
D10*
X96995710Y-70891421D02*
G75*
G02*
X96804290Y-70891421I-95710J0D01*
G01*
X96804290Y-70891421D02*
G75*
G02*
X96995710Y-70891421I95710J0D01*
G01*
D11*
X72478884Y-64341466D02*
X73240789Y-64341466D01*
X73456265Y-66624800D02*
X73599122Y-66672419D01*
X73599122Y-66672419D02*
X73837217Y-66672419D01*
X73837217Y-66672419D02*
X73932455Y-66624800D01*
X73932455Y-66624800D02*
X73980074Y-66577180D01*
X73980074Y-66577180D02*
X74027693Y-66481942D01*
X74027693Y-66481942D02*
X74027693Y-66386704D01*
X74027693Y-66386704D02*
X73980074Y-66291466D01*
X73980074Y-66291466D02*
X73932455Y-66243847D01*
X73932455Y-66243847D02*
X73837217Y-66196228D01*
X73837217Y-66196228D02*
X73646741Y-66148609D01*
X73646741Y-66148609D02*
X73551503Y-66100990D01*
X73551503Y-66100990D02*
X73503884Y-66053371D01*
X73503884Y-66053371D02*
X73456265Y-65958133D01*
X73456265Y-65958133D02*
X73456265Y-65862895D01*
X73456265Y-65862895D02*
X73503884Y-65767657D01*
X73503884Y-65767657D02*
X73551503Y-65720038D01*
X73551503Y-65720038D02*
X73646741Y-65672419D01*
X73646741Y-65672419D02*
X73884836Y-65672419D01*
X73884836Y-65672419D02*
X74027693Y-65720038D01*
X74646741Y-65672419D02*
X74837217Y-65672419D01*
X74837217Y-65672419D02*
X74932455Y-65720038D01*
X74932455Y-65720038D02*
X75027693Y-65815276D01*
X75027693Y-65815276D02*
X75075312Y-66005752D01*
X75075312Y-66005752D02*
X75075312Y-66339085D01*
X75075312Y-66339085D02*
X75027693Y-66529561D01*
X75027693Y-66529561D02*
X74932455Y-66624800D01*
X74932455Y-66624800D02*
X74837217Y-66672419D01*
X74837217Y-66672419D02*
X74646741Y-66672419D01*
X74646741Y-66672419D02*
X74551503Y-66624800D01*
X74551503Y-66624800D02*
X74456265Y-66529561D01*
X74456265Y-66529561D02*
X74408646Y-66339085D01*
X74408646Y-66339085D02*
X74408646Y-66005752D01*
X74408646Y-66005752D02*
X74456265Y-65815276D01*
X74456265Y-65815276D02*
X74551503Y-65720038D01*
X74551503Y-65720038D02*
X74646741Y-65672419D01*
X75980074Y-66672419D02*
X75503884Y-66672419D01*
X75503884Y-66672419D02*
X75503884Y-65672419D01*
X76265789Y-66386704D02*
X76741979Y-66386704D01*
X76170551Y-66672419D02*
X76503884Y-65672419D01*
X76503884Y-65672419D02*
X76837217Y-66672419D01*
X77741979Y-66672419D02*
X77408646Y-66196228D01*
X77170551Y-66672419D02*
X77170551Y-65672419D01*
X77170551Y-65672419D02*
X77551503Y-65672419D01*
X77551503Y-65672419D02*
X77646741Y-65720038D01*
X77646741Y-65720038D02*
X77694360Y-65767657D01*
X77694360Y-65767657D02*
X77741979Y-65862895D01*
X77741979Y-65862895D02*
X77741979Y-66005752D01*
X77741979Y-66005752D02*
X77694360Y-66100990D01*
X77694360Y-66100990D02*
X77646741Y-66148609D01*
X77646741Y-66148609D02*
X77551503Y-66196228D01*
X77551503Y-66196228D02*
X77170551Y-66196228D01*
X77903884Y-64466466D02*
X78665789Y-64466466D01*
X78284836Y-64847419D02*
X78284836Y-64085514D01*
X99919360Y-84222419D02*
X100109836Y-84222419D01*
X100109836Y-84222419D02*
X100205074Y-84270038D01*
X100205074Y-84270038D02*
X100300312Y-84365276D01*
X100300312Y-84365276D02*
X100347931Y-84555752D01*
X100347931Y-84555752D02*
X100347931Y-84889085D01*
X100347931Y-84889085D02*
X100300312Y-85079561D01*
X100300312Y-85079561D02*
X100205074Y-85174800D01*
X100205074Y-85174800D02*
X100109836Y-85222419D01*
X100109836Y-85222419D02*
X99919360Y-85222419D01*
X99919360Y-85222419D02*
X99824122Y-85174800D01*
X99824122Y-85174800D02*
X99728884Y-85079561D01*
X99728884Y-85079561D02*
X99681265Y-84889085D01*
X99681265Y-84889085D02*
X99681265Y-84555752D01*
X99681265Y-84555752D02*
X99728884Y-84365276D01*
X99728884Y-84365276D02*
X99824122Y-84270038D01*
X99824122Y-84270038D02*
X99919360Y-84222419D01*
X100776503Y-85222419D02*
X100776503Y-84222419D01*
X100776503Y-84222419D02*
X101347931Y-85222419D01*
X101347931Y-85222419D02*
X101347931Y-84222419D01*
X102538407Y-84174800D02*
X101681265Y-85460514D01*
X103062217Y-84222419D02*
X103252693Y-84222419D01*
X103252693Y-84222419D02*
X103347931Y-84270038D01*
X103347931Y-84270038D02*
X103443169Y-84365276D01*
X103443169Y-84365276D02*
X103490788Y-84555752D01*
X103490788Y-84555752D02*
X103490788Y-84889085D01*
X103490788Y-84889085D02*
X103443169Y-85079561D01*
X103443169Y-85079561D02*
X103347931Y-85174800D01*
X103347931Y-85174800D02*
X103252693Y-85222419D01*
X103252693Y-85222419D02*
X103062217Y-85222419D01*
X103062217Y-85222419D02*
X102966979Y-85174800D01*
X102966979Y-85174800D02*
X102871741Y-85079561D01*
X102871741Y-85079561D02*
X102824122Y-84889085D01*
X102824122Y-84889085D02*
X102824122Y-84555752D01*
X102824122Y-84555752D02*
X102871741Y-84365276D01*
X102871741Y-84365276D02*
X102966979Y-84270038D01*
X102966979Y-84270038D02*
X103062217Y-84222419D01*
X104252693Y-84698609D02*
X103919360Y-84698609D01*
X103919360Y-85222419D02*
X103919360Y-84222419D01*
X103919360Y-84222419D02*
X104395550Y-84222419D01*
X105109836Y-84698609D02*
X104776503Y-84698609D01*
X104776503Y-85222419D02*
X104776503Y-84222419D01*
X104776503Y-84222419D02*
X105252693Y-84222419D01*
X100803884Y-78772419D02*
X100803884Y-77772419D01*
X100803884Y-77772419D02*
X101137217Y-78486704D01*
X101137217Y-78486704D02*
X101470550Y-77772419D01*
X101470550Y-77772419D02*
X101470550Y-78772419D01*
X102375312Y-78105752D02*
X102375312Y-78772419D01*
X101946741Y-78105752D02*
X101946741Y-78629561D01*
X101946741Y-78629561D02*
X101994360Y-78724800D01*
X101994360Y-78724800D02*
X102089598Y-78772419D01*
X102089598Y-78772419D02*
X102232455Y-78772419D01*
X102232455Y-78772419D02*
X102327693Y-78724800D01*
X102327693Y-78724800D02*
X102375312Y-78677180D01*
X102708646Y-78105752D02*
X103089598Y-78105752D01*
X102851503Y-78772419D02*
X102851503Y-77915276D01*
X102851503Y-77915276D02*
X102899122Y-77820038D01*
X102899122Y-77820038D02*
X102994360Y-77772419D01*
X102994360Y-77772419D02*
X103089598Y-77772419D01*
X103280075Y-78105752D02*
X103661027Y-78105752D01*
X103422932Y-78772419D02*
X103422932Y-77915276D01*
X103422932Y-77915276D02*
X103470551Y-77820038D01*
X103470551Y-77820038D02*
X103565789Y-77772419D01*
X103565789Y-77772419D02*
X103661027Y-77772419D01*
X103994361Y-78772419D02*
X103994361Y-78105752D01*
X103994361Y-77772419D02*
X103946742Y-77820038D01*
X103946742Y-77820038D02*
X103994361Y-77867657D01*
X103994361Y-77867657D02*
X104041980Y-77820038D01*
X104041980Y-77820038D02*
X103994361Y-77772419D01*
X103994361Y-77772419D02*
X103994361Y-77867657D01*
X104470551Y-78105752D02*
X104470551Y-78772419D01*
X104470551Y-78200990D02*
X104518170Y-78153371D01*
X104518170Y-78153371D02*
X104613408Y-78105752D01*
X104613408Y-78105752D02*
X104756265Y-78105752D01*
X104756265Y-78105752D02*
X104851503Y-78153371D01*
X104851503Y-78153371D02*
X104899122Y-78248609D01*
X104899122Y-78248609D02*
X104899122Y-78772419D01*
X105708646Y-78248609D02*
X105851503Y-78296228D01*
X105851503Y-78296228D02*
X105899122Y-78343847D01*
X105899122Y-78343847D02*
X105946741Y-78439085D01*
X105946741Y-78439085D02*
X105946741Y-78581942D01*
X105946741Y-78581942D02*
X105899122Y-78677180D01*
X105899122Y-78677180D02*
X105851503Y-78724800D01*
X105851503Y-78724800D02*
X105756265Y-78772419D01*
X105756265Y-78772419D02*
X105375313Y-78772419D01*
X105375313Y-78772419D02*
X105375313Y-77772419D01*
X105375313Y-77772419D02*
X105708646Y-77772419D01*
X105708646Y-77772419D02*
X105803884Y-77820038D01*
X105803884Y-77820038D02*
X105851503Y-77867657D01*
X105851503Y-77867657D02*
X105899122Y-77962895D01*
X105899122Y-77962895D02*
X105899122Y-78058133D01*
X105899122Y-78058133D02*
X105851503Y-78153371D01*
X105851503Y-78153371D02*
X105803884Y-78200990D01*
X105803884Y-78200990D02*
X105708646Y-78248609D01*
X105708646Y-78248609D02*
X105375313Y-78248609D01*
X106280075Y-78105752D02*
X106518170Y-78772419D01*
X106756265Y-78105752D02*
X106518170Y-78772419D01*
X106518170Y-78772419D02*
X106422932Y-79010514D01*
X106422932Y-79010514D02*
X106375313Y-79058133D01*
X106375313Y-79058133D02*
X106280075Y-79105752D01*
X106994361Y-78105752D02*
X107375313Y-78105752D01*
X107137218Y-77772419D02*
X107137218Y-78629561D01*
X107137218Y-78629561D02*
X107184837Y-78724800D01*
X107184837Y-78724800D02*
X107280075Y-78772419D01*
X107280075Y-78772419D02*
X107375313Y-78772419D01*
X108089599Y-78724800D02*
X107994361Y-78772419D01*
X107994361Y-78772419D02*
X107803885Y-78772419D01*
X107803885Y-78772419D02*
X107708647Y-78724800D01*
X107708647Y-78724800D02*
X107661028Y-78629561D01*
X107661028Y-78629561D02*
X107661028Y-78248609D01*
X107661028Y-78248609D02*
X107708647Y-78153371D01*
X107708647Y-78153371D02*
X107803885Y-78105752D01*
X107803885Y-78105752D02*
X107994361Y-78105752D01*
X107994361Y-78105752D02*
X108089599Y-78153371D01*
X108089599Y-78153371D02*
X108137218Y-78248609D01*
X108137218Y-78248609D02*
X108137218Y-78343847D01*
X108137218Y-78343847D02*
X107661028Y-78439085D01*
X109041980Y-78772419D02*
X108565790Y-78772419D01*
X108565790Y-78772419D02*
X108565790Y-77772419D01*
X109803885Y-78772419D02*
X109803885Y-78248609D01*
X109803885Y-78248609D02*
X109756266Y-78153371D01*
X109756266Y-78153371D02*
X109661028Y-78105752D01*
X109661028Y-78105752D02*
X109470552Y-78105752D01*
X109470552Y-78105752D02*
X109375314Y-78153371D01*
X109803885Y-78724800D02*
X109708647Y-78772419D01*
X109708647Y-78772419D02*
X109470552Y-78772419D01*
X109470552Y-78772419D02*
X109375314Y-78724800D01*
X109375314Y-78724800D02*
X109327695Y-78629561D01*
X109327695Y-78629561D02*
X109327695Y-78534323D01*
X109327695Y-78534323D02*
X109375314Y-78439085D01*
X109375314Y-78439085D02*
X109470552Y-78391466D01*
X109470552Y-78391466D02*
X109708647Y-78391466D01*
X109708647Y-78391466D02*
X109803885Y-78343847D01*
X110280076Y-78772419D02*
X110280076Y-77772419D01*
X110280076Y-78153371D02*
X110375314Y-78105752D01*
X110375314Y-78105752D02*
X110565790Y-78105752D01*
X110565790Y-78105752D02*
X110661028Y-78153371D01*
X110661028Y-78153371D02*
X110708647Y-78200990D01*
X110708647Y-78200990D02*
X110756266Y-78296228D01*
X110756266Y-78296228D02*
X110756266Y-78581942D01*
X110756266Y-78581942D02*
X110708647Y-78677180D01*
X110708647Y-78677180D02*
X110661028Y-78724800D01*
X110661028Y-78724800D02*
X110565790Y-78772419D01*
X110565790Y-78772419D02*
X110375314Y-78772419D01*
X110375314Y-78772419D02*
X110280076Y-78724800D01*
X111137219Y-78724800D02*
X111232457Y-78772419D01*
X111232457Y-78772419D02*
X111422933Y-78772419D01*
X111422933Y-78772419D02*
X111518171Y-78724800D01*
X111518171Y-78724800D02*
X111565790Y-78629561D01*
X111565790Y-78629561D02*
X111565790Y-78581942D01*
X111565790Y-78581942D02*
X111518171Y-78486704D01*
X111518171Y-78486704D02*
X111422933Y-78439085D01*
X111422933Y-78439085D02*
X111280076Y-78439085D01*
X111280076Y-78439085D02*
X111184838Y-78391466D01*
X111184838Y-78391466D02*
X111137219Y-78296228D01*
X111137219Y-78296228D02*
X111137219Y-78248609D01*
X111137219Y-78248609D02*
X111184838Y-78153371D01*
X111184838Y-78153371D02*
X111280076Y-78105752D01*
X111280076Y-78105752D02*
X111422933Y-78105752D01*
X111422933Y-78105752D02*
X111518171Y-78153371D01*
X111994362Y-78677180D02*
X112041981Y-78724800D01*
X112041981Y-78724800D02*
X111994362Y-78772419D01*
X111994362Y-78772419D02*
X111946743Y-78724800D01*
X111946743Y-78724800D02*
X111994362Y-78677180D01*
X111994362Y-78677180D02*
X111994362Y-78772419D01*
X112899123Y-78724800D02*
X112803885Y-78772419D01*
X112803885Y-78772419D02*
X112613409Y-78772419D01*
X112613409Y-78772419D02*
X112518171Y-78724800D01*
X112518171Y-78724800D02*
X112470552Y-78677180D01*
X112470552Y-78677180D02*
X112422933Y-78581942D01*
X112422933Y-78581942D02*
X112422933Y-78296228D01*
X112422933Y-78296228D02*
X112470552Y-78200990D01*
X112470552Y-78200990D02*
X112518171Y-78153371D01*
X112518171Y-78153371D02*
X112613409Y-78105752D01*
X112613409Y-78105752D02*
X112803885Y-78105752D01*
X112803885Y-78105752D02*
X112899123Y-78153371D01*
X113470552Y-78772419D02*
X113375314Y-78724800D01*
X113375314Y-78724800D02*
X113327695Y-78677180D01*
X113327695Y-78677180D02*
X113280076Y-78581942D01*
X113280076Y-78581942D02*
X113280076Y-78296228D01*
X113280076Y-78296228D02*
X113327695Y-78200990D01*
X113327695Y-78200990D02*
X113375314Y-78153371D01*
X113375314Y-78153371D02*
X113470552Y-78105752D01*
X113470552Y-78105752D02*
X113613409Y-78105752D01*
X113613409Y-78105752D02*
X113708647Y-78153371D01*
X113708647Y-78153371D02*
X113756266Y-78200990D01*
X113756266Y-78200990D02*
X113803885Y-78296228D01*
X113803885Y-78296228D02*
X113803885Y-78581942D01*
X113803885Y-78581942D02*
X113756266Y-78677180D01*
X113756266Y-78677180D02*
X113708647Y-78724800D01*
X113708647Y-78724800D02*
X113613409Y-78772419D01*
X113613409Y-78772419D02*
X113470552Y-78772419D01*
X114232457Y-78772419D02*
X114232457Y-78105752D01*
X114232457Y-78200990D02*
X114280076Y-78153371D01*
X114280076Y-78153371D02*
X114375314Y-78105752D01*
X114375314Y-78105752D02*
X114518171Y-78105752D01*
X114518171Y-78105752D02*
X114613409Y-78153371D01*
X114613409Y-78153371D02*
X114661028Y-78248609D01*
X114661028Y-78248609D02*
X114661028Y-78772419D01*
X114661028Y-78248609D02*
X114708647Y-78153371D01*
X114708647Y-78153371D02*
X114803885Y-78105752D01*
X114803885Y-78105752D02*
X114946742Y-78105752D01*
X114946742Y-78105752D02*
X115041981Y-78153371D01*
X115041981Y-78153371D02*
X115089600Y-78248609D01*
X115089600Y-78248609D02*
X115089600Y-78772419D01*
X101400312Y-77172419D02*
X101066979Y-76696228D01*
X100828884Y-77172419D02*
X100828884Y-76172419D01*
X100828884Y-76172419D02*
X101209836Y-76172419D01*
X101209836Y-76172419D02*
X101305074Y-76220038D01*
X101305074Y-76220038D02*
X101352693Y-76267657D01*
X101352693Y-76267657D02*
X101400312Y-76362895D01*
X101400312Y-76362895D02*
X101400312Y-76505752D01*
X101400312Y-76505752D02*
X101352693Y-76600990D01*
X101352693Y-76600990D02*
X101305074Y-76648609D01*
X101305074Y-76648609D02*
X101209836Y-76696228D01*
X101209836Y-76696228D02*
X100828884Y-76696228D01*
X102257455Y-77172419D02*
X102257455Y-76648609D01*
X102257455Y-76648609D02*
X102209836Y-76553371D01*
X102209836Y-76553371D02*
X102114598Y-76505752D01*
X102114598Y-76505752D02*
X101924122Y-76505752D01*
X101924122Y-76505752D02*
X101828884Y-76553371D01*
X102257455Y-77124800D02*
X102162217Y-77172419D01*
X102162217Y-77172419D02*
X101924122Y-77172419D01*
X101924122Y-77172419D02*
X101828884Y-77124800D01*
X101828884Y-77124800D02*
X101781265Y-77029561D01*
X101781265Y-77029561D02*
X101781265Y-76934323D01*
X101781265Y-76934323D02*
X101828884Y-76839085D01*
X101828884Y-76839085D02*
X101924122Y-76791466D01*
X101924122Y-76791466D02*
X102162217Y-76791466D01*
X102162217Y-76791466D02*
X102257455Y-76743847D01*
X102638408Y-76505752D02*
X102876503Y-77172419D01*
X103114598Y-76505752D02*
X102876503Y-77172419D01*
X102876503Y-77172419D02*
X102781265Y-77410514D01*
X102781265Y-77410514D02*
X102733646Y-77458133D01*
X102733646Y-77458133D02*
X102638408Y-77505752D01*
X104257456Y-77172419D02*
X104257456Y-76172419D01*
X104257456Y-76172419D02*
X104590789Y-76886704D01*
X104590789Y-76886704D02*
X104924122Y-76172419D01*
X104924122Y-76172419D02*
X104924122Y-77172419D01*
X105828884Y-77172419D02*
X105828884Y-76648609D01*
X105828884Y-76648609D02*
X105781265Y-76553371D01*
X105781265Y-76553371D02*
X105686027Y-76505752D01*
X105686027Y-76505752D02*
X105495551Y-76505752D01*
X105495551Y-76505752D02*
X105400313Y-76553371D01*
X105828884Y-77124800D02*
X105733646Y-77172419D01*
X105733646Y-77172419D02*
X105495551Y-77172419D01*
X105495551Y-77172419D02*
X105400313Y-77124800D01*
X105400313Y-77124800D02*
X105352694Y-77029561D01*
X105352694Y-77029561D02*
X105352694Y-76934323D01*
X105352694Y-76934323D02*
X105400313Y-76839085D01*
X105400313Y-76839085D02*
X105495551Y-76791466D01*
X105495551Y-76791466D02*
X105733646Y-76791466D01*
X105733646Y-76791466D02*
X105828884Y-76743847D01*
X106447932Y-77172419D02*
X106352694Y-77124800D01*
X106352694Y-77124800D02*
X106305075Y-77029561D01*
X106305075Y-77029561D02*
X106305075Y-76172419D01*
X106828885Y-77172419D02*
X106828885Y-76505752D01*
X106828885Y-76172419D02*
X106781266Y-76220038D01*
X106781266Y-76220038D02*
X106828885Y-76267657D01*
X106828885Y-76267657D02*
X106876504Y-76220038D01*
X106876504Y-76220038D02*
X106828885Y-76172419D01*
X106828885Y-76172419D02*
X106828885Y-76267657D01*
X107305075Y-77172419D02*
X107305075Y-76172419D01*
X107400313Y-76791466D02*
X107686027Y-77172419D01*
X107686027Y-76505752D02*
X107305075Y-76886704D01*
X72098609Y-79162782D02*
X72146228Y-79019925D01*
X72146228Y-79019925D02*
X72193847Y-78972306D01*
X72193847Y-78972306D02*
X72289085Y-78924687D01*
X72289085Y-78924687D02*
X72431942Y-78924687D01*
X72431942Y-78924687D02*
X72527180Y-78972306D01*
X72527180Y-78972306D02*
X72574800Y-79019925D01*
X72574800Y-79019925D02*
X72622419Y-79115163D01*
X72622419Y-79115163D02*
X72622419Y-79496115D01*
X72622419Y-79496115D02*
X71622419Y-79496115D01*
X71622419Y-79496115D02*
X71622419Y-79162782D01*
X71622419Y-79162782D02*
X71670038Y-79067544D01*
X71670038Y-79067544D02*
X71717657Y-79019925D01*
X71717657Y-79019925D02*
X71812895Y-78972306D01*
X71812895Y-78972306D02*
X71908133Y-78972306D01*
X71908133Y-78972306D02*
X72003371Y-79019925D01*
X72003371Y-79019925D02*
X72050990Y-79067544D01*
X72050990Y-79067544D02*
X72098609Y-79162782D01*
X72098609Y-79162782D02*
X72098609Y-79496115D01*
X72336704Y-78543734D02*
X72336704Y-78067544D01*
X72622419Y-78638972D02*
X71622419Y-78305639D01*
X71622419Y-78305639D02*
X72622419Y-77972306D01*
X71622419Y-77781829D02*
X71622419Y-77210401D01*
X72622419Y-77496115D02*
X71622419Y-77496115D01*
X114722419Y-66305639D02*
X114722419Y-66115163D01*
X114722419Y-66115163D02*
X114770038Y-66019925D01*
X114770038Y-66019925D02*
X114865276Y-65924687D01*
X114865276Y-65924687D02*
X115055752Y-65877068D01*
X115055752Y-65877068D02*
X115389085Y-65877068D01*
X115389085Y-65877068D02*
X115579561Y-65924687D01*
X115579561Y-65924687D02*
X115674800Y-66019925D01*
X115674800Y-66019925D02*
X115722419Y-66115163D01*
X115722419Y-66115163D02*
X115722419Y-66305639D01*
X115722419Y-66305639D02*
X115674800Y-66400877D01*
X115674800Y-66400877D02*
X115579561Y-66496115D01*
X115579561Y-66496115D02*
X115389085Y-66543734D01*
X115389085Y-66543734D02*
X115055752Y-66543734D01*
X115055752Y-66543734D02*
X114865276Y-66496115D01*
X114865276Y-66496115D02*
X114770038Y-66400877D01*
X114770038Y-66400877D02*
X114722419Y-66305639D01*
X114722419Y-65448496D02*
X115531942Y-65448496D01*
X115531942Y-65448496D02*
X115627180Y-65400877D01*
X115627180Y-65400877D02*
X115674800Y-65353258D01*
X115674800Y-65353258D02*
X115722419Y-65258020D01*
X115722419Y-65258020D02*
X115722419Y-65067544D01*
X115722419Y-65067544D02*
X115674800Y-64972306D01*
X115674800Y-64972306D02*
X115627180Y-64924687D01*
X115627180Y-64924687D02*
X115531942Y-64877068D01*
X115531942Y-64877068D02*
X114722419Y-64877068D01*
X114722419Y-64543734D02*
X114722419Y-63972306D01*
X115722419Y-64258020D02*
X114722419Y-64258020D01*
X76696115Y-71833533D02*
X75934211Y-71833533D01*
X76315163Y-71452580D02*
X76315163Y-72214485D01*
X82121115Y-71958533D02*
X81359211Y-71958533D01*
X115308533Y-67803884D02*
X115308533Y-68565789D01*
X114927580Y-68184836D02*
X115689485Y-68184836D01*
X115433533Y-62378884D02*
X115433533Y-63140789D01*
D12*
X97946905Y-73729819D02*
X97946905Y-72729819D01*
X97946905Y-72729819D02*
X98185000Y-72729819D01*
X98185000Y-72729819D02*
X98327857Y-72777438D01*
X98327857Y-72777438D02*
X98423095Y-72872676D01*
X98423095Y-72872676D02*
X98470714Y-72967914D01*
X98470714Y-72967914D02*
X98518333Y-73158390D01*
X98518333Y-73158390D02*
X98518333Y-73301247D01*
X98518333Y-73301247D02*
X98470714Y-73491723D01*
X98470714Y-73491723D02*
X98423095Y-73586961D01*
X98423095Y-73586961D02*
X98327857Y-73682200D01*
X98327857Y-73682200D02*
X98185000Y-73729819D01*
X98185000Y-73729819D02*
X97946905Y-73729819D01*
X99470714Y-73729819D02*
X98899286Y-73729819D01*
X99185000Y-73729819D02*
X99185000Y-72729819D01*
X99185000Y-72729819D02*
X99089762Y-72872676D01*
X99089762Y-72872676D02*
X98994524Y-72967914D01*
X98994524Y-72967914D02*
X98899286Y-73015533D01*
X78511666Y-76179819D02*
X78511666Y-76894104D01*
X78511666Y-76894104D02*
X78464047Y-77036961D01*
X78464047Y-77036961D02*
X78368809Y-77132200D01*
X78368809Y-77132200D02*
X78225952Y-77179819D01*
X78225952Y-77179819D02*
X78130714Y-77179819D01*
X78940238Y-76275057D02*
X78987857Y-76227438D01*
X78987857Y-76227438D02*
X79083095Y-76179819D01*
X79083095Y-76179819D02*
X79321190Y-76179819D01*
X79321190Y-76179819D02*
X79416428Y-76227438D01*
X79416428Y-76227438D02*
X79464047Y-76275057D01*
X79464047Y-76275057D02*
X79511666Y-76370295D01*
X79511666Y-76370295D02*
X79511666Y-76465533D01*
X79511666Y-76465533D02*
X79464047Y-76608390D01*
X79464047Y-76608390D02*
X78892619Y-77179819D01*
X78892619Y-77179819D02*
X79511666Y-77179819D01*
X98283733Y-59744780D02*
X98236114Y-59792400D01*
X98236114Y-59792400D02*
X98093257Y-59840019D01*
X98093257Y-59840019D02*
X97998019Y-59840019D01*
X97998019Y-59840019D02*
X97855162Y-59792400D01*
X97855162Y-59792400D02*
X97759924Y-59697161D01*
X97759924Y-59697161D02*
X97712305Y-59601923D01*
X97712305Y-59601923D02*
X97664686Y-59411447D01*
X97664686Y-59411447D02*
X97664686Y-59268590D01*
X97664686Y-59268590D02*
X97712305Y-59078114D01*
X97712305Y-59078114D02*
X97759924Y-58982876D01*
X97759924Y-58982876D02*
X97855162Y-58887638D01*
X97855162Y-58887638D02*
X97998019Y-58840019D01*
X97998019Y-58840019D02*
X98093257Y-58840019D01*
X98093257Y-58840019D02*
X98236114Y-58887638D01*
X98236114Y-58887638D02*
X98283733Y-58935257D01*
X98617067Y-58840019D02*
X99236114Y-58840019D01*
X99236114Y-58840019D02*
X98902781Y-59220971D01*
X98902781Y-59220971D02*
X99045638Y-59220971D01*
X99045638Y-59220971D02*
X99140876Y-59268590D01*
X99140876Y-59268590D02*
X99188495Y-59316209D01*
X99188495Y-59316209D02*
X99236114Y-59411447D01*
X99236114Y-59411447D02*
X99236114Y-59649542D01*
X99236114Y-59649542D02*
X99188495Y-59744780D01*
X99188495Y-59744780D02*
X99140876Y-59792400D01*
X99140876Y-59792400D02*
X99045638Y-59840019D01*
X99045638Y-59840019D02*
X98759924Y-59840019D01*
X98759924Y-59840019D02*
X98664686Y-59792400D01*
X98664686Y-59792400D02*
X98617067Y-59744780D01*
X89708333Y-75779819D02*
X89232143Y-75779819D01*
X89232143Y-75779819D02*
X89232143Y-74779819D01*
X90565476Y-75779819D02*
X89994048Y-75779819D01*
X90279762Y-75779819D02*
X90279762Y-74779819D01*
X90279762Y-74779819D02*
X90184524Y-74922676D01*
X90184524Y-74922676D02*
X90089286Y-75017914D01*
X90089286Y-75017914D02*
X89994048Y-75065533D01*
X95116667Y-79507200D02*
X95259524Y-79554819D01*
X95259524Y-79554819D02*
X95497619Y-79554819D01*
X95497619Y-79554819D02*
X95592857Y-79507200D01*
X95592857Y-79507200D02*
X95640476Y-79459580D01*
X95640476Y-79459580D02*
X95688095Y-79364342D01*
X95688095Y-79364342D02*
X95688095Y-79269104D01*
X95688095Y-79269104D02*
X95640476Y-79173866D01*
X95640476Y-79173866D02*
X95592857Y-79126247D01*
X95592857Y-79126247D02*
X95497619Y-79078628D01*
X95497619Y-79078628D02*
X95307143Y-79031009D01*
X95307143Y-79031009D02*
X95211905Y-78983390D01*
X95211905Y-78983390D02*
X95164286Y-78935771D01*
X95164286Y-78935771D02*
X95116667Y-78840533D01*
X95116667Y-78840533D02*
X95116667Y-78745295D01*
X95116667Y-78745295D02*
X95164286Y-78650057D01*
X95164286Y-78650057D02*
X95211905Y-78602438D01*
X95211905Y-78602438D02*
X95307143Y-78554819D01*
X95307143Y-78554819D02*
X95545238Y-78554819D01*
X95545238Y-78554819D02*
X95688095Y-78602438D01*
X96021429Y-78554819D02*
X96259524Y-79554819D01*
X96259524Y-79554819D02*
X96450000Y-78840533D01*
X96450000Y-78840533D02*
X96640476Y-79554819D01*
X96640476Y-79554819D02*
X96878572Y-78554819D01*
X97783333Y-79554819D02*
X97211905Y-79554819D01*
X97497619Y-79554819D02*
X97497619Y-78554819D01*
X97497619Y-78554819D02*
X97402381Y-78697676D01*
X97402381Y-78697676D02*
X97307143Y-78792914D01*
X97307143Y-78792914D02*
X97211905Y-78840533D01*
X82048019Y-67124894D02*
X81048019Y-67124894D01*
X81048019Y-67124894D02*
X81048019Y-66886799D01*
X81048019Y-66886799D02*
X81095638Y-66743942D01*
X81095638Y-66743942D02*
X81190876Y-66648704D01*
X81190876Y-66648704D02*
X81286114Y-66601085D01*
X81286114Y-66601085D02*
X81476590Y-66553466D01*
X81476590Y-66553466D02*
X81619447Y-66553466D01*
X81619447Y-66553466D02*
X81809923Y-66601085D01*
X81809923Y-66601085D02*
X81905161Y-66648704D01*
X81905161Y-66648704D02*
X82000400Y-66743942D01*
X82000400Y-66743942D02*
X82048019Y-66886799D01*
X82048019Y-66886799D02*
X82048019Y-67124894D01*
X81143257Y-66172513D02*
X81095638Y-66124894D01*
X81095638Y-66124894D02*
X81048019Y-66029656D01*
X81048019Y-66029656D02*
X81048019Y-65791561D01*
X81048019Y-65791561D02*
X81095638Y-65696323D01*
X81095638Y-65696323D02*
X81143257Y-65648704D01*
X81143257Y-65648704D02*
X81238495Y-65601085D01*
X81238495Y-65601085D02*
X81333733Y-65601085D01*
X81333733Y-65601085D02*
X81476590Y-65648704D01*
X81476590Y-65648704D02*
X82048019Y-66220132D01*
X82048019Y-66220132D02*
X82048019Y-65601085D01*
X94533333Y-64954219D02*
X94200000Y-64478028D01*
X93961905Y-64954219D02*
X93961905Y-63954219D01*
X93961905Y-63954219D02*
X94342857Y-63954219D01*
X94342857Y-63954219D02*
X94438095Y-64001838D01*
X94438095Y-64001838D02*
X94485714Y-64049457D01*
X94485714Y-64049457D02*
X94533333Y-64144695D01*
X94533333Y-64144695D02*
X94533333Y-64287552D01*
X94533333Y-64287552D02*
X94485714Y-64382790D01*
X94485714Y-64382790D02*
X94438095Y-64430409D01*
X94438095Y-64430409D02*
X94342857Y-64478028D01*
X94342857Y-64478028D02*
X93961905Y-64478028D01*
X94914286Y-64049457D02*
X94961905Y-64001838D01*
X94961905Y-64001838D02*
X95057143Y-63954219D01*
X95057143Y-63954219D02*
X95295238Y-63954219D01*
X95295238Y-63954219D02*
X95390476Y-64001838D01*
X95390476Y-64001838D02*
X95438095Y-64049457D01*
X95438095Y-64049457D02*
X95485714Y-64144695D01*
X95485714Y-64144695D02*
X95485714Y-64239933D01*
X95485714Y-64239933D02*
X95438095Y-64382790D01*
X95438095Y-64382790D02*
X94866667Y-64954219D01*
X94866667Y-64954219D02*
X95485714Y-64954219D01*
X92083333Y-59992419D02*
X91750000Y-59516228D01*
X91511905Y-59992419D02*
X91511905Y-58992419D01*
X91511905Y-58992419D02*
X91892857Y-58992419D01*
X91892857Y-58992419D02*
X91988095Y-59040038D01*
X91988095Y-59040038D02*
X92035714Y-59087657D01*
X92035714Y-59087657D02*
X92083333Y-59182895D01*
X92083333Y-59182895D02*
X92083333Y-59325752D01*
X92083333Y-59325752D02*
X92035714Y-59420990D01*
X92035714Y-59420990D02*
X91988095Y-59468609D01*
X91988095Y-59468609D02*
X91892857Y-59516228D01*
X91892857Y-59516228D02*
X91511905Y-59516228D01*
X92940476Y-59325752D02*
X92940476Y-59992419D01*
X92702381Y-58944800D02*
X92464286Y-59659085D01*
X92464286Y-59659085D02*
X93083333Y-59659085D01*
X86611619Y-67121066D02*
X86135428Y-67454399D01*
X86611619Y-67692494D02*
X85611619Y-67692494D01*
X85611619Y-67692494D02*
X85611619Y-67311542D01*
X85611619Y-67311542D02*
X85659238Y-67216304D01*
X85659238Y-67216304D02*
X85706857Y-67168685D01*
X85706857Y-67168685D02*
X85802095Y-67121066D01*
X85802095Y-67121066D02*
X85944952Y-67121066D01*
X85944952Y-67121066D02*
X86040190Y-67168685D01*
X86040190Y-67168685D02*
X86087809Y-67216304D01*
X86087809Y-67216304D02*
X86135428Y-67311542D01*
X86135428Y-67311542D02*
X86135428Y-67692494D01*
X85611619Y-66787732D02*
X85611619Y-66168685D01*
X85611619Y-66168685D02*
X85992571Y-66502018D01*
X85992571Y-66502018D02*
X85992571Y-66359161D01*
X85992571Y-66359161D02*
X86040190Y-66263923D01*
X86040190Y-66263923D02*
X86087809Y-66216304D01*
X86087809Y-66216304D02*
X86183047Y-66168685D01*
X86183047Y-66168685D02*
X86421142Y-66168685D01*
X86421142Y-66168685D02*
X86516380Y-66216304D01*
X86516380Y-66216304D02*
X86564000Y-66263923D01*
X86564000Y-66263923D02*
X86611619Y-66359161D01*
X86611619Y-66359161D02*
X86611619Y-66644875D01*
X86611619Y-66644875D02*
X86564000Y-66740113D01*
X86564000Y-66740113D02*
X86516380Y-66787732D01*
X105591666Y-58179819D02*
X105591666Y-58894104D01*
X105591666Y-58894104D02*
X105544047Y-59036961D01*
X105544047Y-59036961D02*
X105448809Y-59132200D01*
X105448809Y-59132200D02*
X105305952Y-59179819D01*
X105305952Y-59179819D02*
X105210714Y-59179819D01*
X106591666Y-59179819D02*
X106020238Y-59179819D01*
X106305952Y-59179819D02*
X106305952Y-58179819D01*
X106305952Y-58179819D02*
X106210714Y-58322676D01*
X106210714Y-58322676D02*
X106115476Y-58417914D01*
X106115476Y-58417914D02*
X106020238Y-58465533D01*
X93713095Y-71154819D02*
X93713095Y-71964342D01*
X93713095Y-71964342D02*
X93760714Y-72059580D01*
X93760714Y-72059580D02*
X93808333Y-72107200D01*
X93808333Y-72107200D02*
X93903571Y-72154819D01*
X93903571Y-72154819D02*
X94094047Y-72154819D01*
X94094047Y-72154819D02*
X94189285Y-72107200D01*
X94189285Y-72107200D02*
X94236904Y-72059580D01*
X94236904Y-72059580D02*
X94284523Y-71964342D01*
X94284523Y-71964342D02*
X94284523Y-71154819D01*
X95284523Y-72154819D02*
X94713095Y-72154819D01*
X94998809Y-72154819D02*
X94998809Y-71154819D01*
X94998809Y-71154819D02*
X94903571Y-71297676D01*
X94903571Y-71297676D02*
X94808333Y-71392914D01*
X94808333Y-71392914D02*
X94713095Y-71440533D01*
X89348457Y-64306438D02*
X89300838Y-64401676D01*
X89300838Y-64401676D02*
X89205600Y-64496914D01*
X89205600Y-64496914D02*
X89062742Y-64639771D01*
X89062742Y-64639771D02*
X89015123Y-64735009D01*
X89015123Y-64735009D02*
X89015123Y-64830247D01*
X89253219Y-64782628D02*
X89205600Y-64877866D01*
X89205600Y-64877866D02*
X89110361Y-64973104D01*
X89110361Y-64973104D02*
X88919885Y-65020723D01*
X88919885Y-65020723D02*
X88586552Y-65020723D01*
X88586552Y-65020723D02*
X88396076Y-64973104D01*
X88396076Y-64973104D02*
X88300838Y-64877866D01*
X88300838Y-64877866D02*
X88253219Y-64782628D01*
X88253219Y-64782628D02*
X88253219Y-64592152D01*
X88253219Y-64592152D02*
X88300838Y-64496914D01*
X88300838Y-64496914D02*
X88396076Y-64401676D01*
X88396076Y-64401676D02*
X88586552Y-64354057D01*
X88586552Y-64354057D02*
X88919885Y-64354057D01*
X88919885Y-64354057D02*
X89110361Y-64401676D01*
X89110361Y-64401676D02*
X89205600Y-64496914D01*
X89205600Y-64496914D02*
X89253219Y-64592152D01*
X89253219Y-64592152D02*
X89253219Y-64782628D01*
X89253219Y-63401676D02*
X89253219Y-63973104D01*
X89253219Y-63687390D02*
X88253219Y-63687390D01*
X88253219Y-63687390D02*
X88396076Y-63782628D01*
X88396076Y-63782628D02*
X88491314Y-63877866D01*
X88491314Y-63877866D02*
X88538933Y-63973104D01*
X89084580Y-70191666D02*
X89132200Y-70239285D01*
X89132200Y-70239285D02*
X89179819Y-70382142D01*
X89179819Y-70382142D02*
X89179819Y-70477380D01*
X89179819Y-70477380D02*
X89132200Y-70620237D01*
X89132200Y-70620237D02*
X89036961Y-70715475D01*
X89036961Y-70715475D02*
X88941723Y-70763094D01*
X88941723Y-70763094D02*
X88751247Y-70810713D01*
X88751247Y-70810713D02*
X88608390Y-70810713D01*
X88608390Y-70810713D02*
X88417914Y-70763094D01*
X88417914Y-70763094D02*
X88322676Y-70715475D01*
X88322676Y-70715475D02*
X88227438Y-70620237D01*
X88227438Y-70620237D02*
X88179819Y-70477380D01*
X88179819Y-70477380D02*
X88179819Y-70382142D01*
X88179819Y-70382142D02*
X88227438Y-70239285D01*
X88227438Y-70239285D02*
X88275057Y-70191666D01*
X89179819Y-69239285D02*
X89179819Y-69810713D01*
X89179819Y-69524999D02*
X88179819Y-69524999D01*
X88179819Y-69524999D02*
X88322676Y-69620237D01*
X88322676Y-69620237D02*
X88417914Y-69715475D01*
X88417914Y-69715475D02*
X88465533Y-69810713D01*
X96554819Y-63216666D02*
X96078628Y-63549999D01*
X96554819Y-63788094D02*
X95554819Y-63788094D01*
X95554819Y-63788094D02*
X95554819Y-63407142D01*
X95554819Y-63407142D02*
X95602438Y-63311904D01*
X95602438Y-63311904D02*
X95650057Y-63264285D01*
X95650057Y-63264285D02*
X95745295Y-63216666D01*
X95745295Y-63216666D02*
X95888152Y-63216666D01*
X95888152Y-63216666D02*
X95983390Y-63264285D01*
X95983390Y-63264285D02*
X96031009Y-63311904D01*
X96031009Y-63311904D02*
X96078628Y-63407142D01*
X96078628Y-63407142D02*
X96078628Y-63788094D01*
X96554819Y-62264285D02*
X96554819Y-62835713D01*
X96554819Y-62549999D02*
X95554819Y-62549999D01*
X95554819Y-62549999D02*
X95697676Y-62645237D01*
X95697676Y-62645237D02*
X95792914Y-62740475D01*
X95792914Y-62740475D02*
X95840533Y-62835713D01*
X75321666Y-64279819D02*
X75321666Y-64994104D01*
X75321666Y-64994104D02*
X75274047Y-65136961D01*
X75274047Y-65136961D02*
X75178809Y-65232200D01*
X75178809Y-65232200D02*
X75035952Y-65279819D01*
X75035952Y-65279819D02*
X74940714Y-65279819D01*
X76226428Y-64613152D02*
X76226428Y-65279819D01*
X75988333Y-64232200D02*
X75750238Y-64946485D01*
X75750238Y-64946485D02*
X76369285Y-64946485D01*
X101034580Y-68166666D02*
X101082200Y-68214285D01*
X101082200Y-68214285D02*
X101129819Y-68357142D01*
X101129819Y-68357142D02*
X101129819Y-68452380D01*
X101129819Y-68452380D02*
X101082200Y-68595237D01*
X101082200Y-68595237D02*
X100986961Y-68690475D01*
X100986961Y-68690475D02*
X100891723Y-68738094D01*
X100891723Y-68738094D02*
X100701247Y-68785713D01*
X100701247Y-68785713D02*
X100558390Y-68785713D01*
X100558390Y-68785713D02*
X100367914Y-68738094D01*
X100367914Y-68738094D02*
X100272676Y-68690475D01*
X100272676Y-68690475D02*
X100177438Y-68595237D01*
X100177438Y-68595237D02*
X100129819Y-68452380D01*
X100129819Y-68452380D02*
X100129819Y-68357142D01*
X100129819Y-68357142D02*
X100177438Y-68214285D01*
X100177438Y-68214285D02*
X100225057Y-68166666D01*
X100225057Y-67785713D02*
X100177438Y-67738094D01*
X100177438Y-67738094D02*
X100129819Y-67642856D01*
X100129819Y-67642856D02*
X100129819Y-67404761D01*
X100129819Y-67404761D02*
X100177438Y-67309523D01*
X100177438Y-67309523D02*
X100225057Y-67261904D01*
X100225057Y-67261904D02*
X100320295Y-67214285D01*
X100320295Y-67214285D02*
X100415533Y-67214285D01*
X100415533Y-67214285D02*
X100558390Y-67261904D01*
X100558390Y-67261904D02*
X101129819Y-67833332D01*
X101129819Y-67833332D02*
X101129819Y-67214285D01*
%TO.C,D1*%
D13*
X96520000Y-71922800D02*
X96520000Y-72132800D01*
X96520000Y-74272800D02*
X96520000Y-74482800D01*
X96520000Y-74482800D02*
X100850000Y-74482800D01*
X100850000Y-71922800D02*
X96520000Y-71922800D01*
X100850000Y-71922800D02*
X100850000Y-72132800D01*
X100850000Y-74482800D02*
X100850000Y-74272800D01*
D14*
X102785000Y-73202800D02*
G75*
G02*
X102585000Y-73202800I-100000J0D01*
G01*
X102585000Y-73202800D02*
G75*
G02*
X102785000Y-73202800I100000J0D01*
G01*
%TO.C,J2*%
D15*
X73645000Y-72997500D02*
X84045000Y-72997500D01*
X73645000Y-75117500D02*
X84045000Y-75117500D01*
X73645000Y-81317500D02*
X84045000Y-81317500D01*
X73645000Y-83817500D02*
X84045000Y-83817500D01*
X73645000Y-84437500D02*
X73645000Y-72997500D01*
X76005000Y-84437500D02*
X73645000Y-84437500D01*
X84045000Y-72997500D02*
X84045000Y-84437500D01*
X84045000Y-84437500D02*
X76605000Y-84437500D01*
X76305000Y-84437500D02*
X76745000Y-85047500D01*
X75865000Y-85047500D01*
X76305000Y-84437500D01*
G36*
X76745000Y-85047500D02*
G01*
X75865000Y-85047500D01*
X76305000Y-84437500D01*
X76745000Y-85047500D01*
G37*
%TO.C,C3*%
X98559252Y-60428200D02*
X98036748Y-60428200D01*
X98559252Y-61898200D02*
X98036748Y-61898200D01*
D16*
%TO.C,G\u002A\u002A\u002A*%
G36*
X111115258Y-76716671D02*
G01*
X111115274Y-76716780D01*
X111114107Y-76721310D01*
X111110820Y-76732392D01*
X111105735Y-76748987D01*
X111099172Y-76770056D01*
X111091454Y-76794558D01*
X111083696Y-76818962D01*
X111073004Y-76852534D01*
X111060742Y-76891158D01*
X111047320Y-76933531D01*
X111033152Y-76978345D01*
X111018648Y-77024297D01*
X111004220Y-77070080D01*
X110990279Y-77114388D01*
X110977237Y-77155918D01*
X110965505Y-77193362D01*
X110955494Y-77225417D01*
X110949788Y-77243766D01*
X110938462Y-77277280D01*
X110927232Y-77303989D01*
X110915515Y-77325039D01*
X110902732Y-77341570D01*
X110897125Y-77347234D01*
X110874788Y-77364770D01*
X110847527Y-77379711D01*
X110814570Y-77392365D01*
X110775144Y-77403038D01*
X110739227Y-77410219D01*
X110718804Y-77413555D01*
X110694874Y-77417070D01*
X110669143Y-77420555D01*
X110643320Y-77423801D01*
X110619112Y-77426599D01*
X110598228Y-77428739D01*
X110582373Y-77430012D01*
X110575417Y-77430277D01*
X110568542Y-77429899D01*
X110565483Y-77427370D01*
X110565238Y-77420603D01*
X110566319Y-77411341D01*
X110567621Y-77402563D01*
X110570105Y-77387123D01*
X110573569Y-77366212D01*
X110577815Y-77341023D01*
X110582642Y-77312749D01*
X110587851Y-77282581D01*
X110588862Y-77276765D01*
X110594777Y-77242688D01*
X110601651Y-77202940D01*
X110609107Y-77159713D01*
X110616767Y-77115199D01*
X110624255Y-77071590D01*
X110631192Y-77031077D01*
X110632816Y-77021569D01*
X110641231Y-76972477D01*
X110649246Y-76926084D01*
X110656757Y-76882966D01*
X110663661Y-76843700D01*
X110669855Y-76808862D01*
X110675236Y-76779028D01*
X110679701Y-76754775D01*
X110683146Y-76736680D01*
X110685469Y-76725318D01*
X110686547Y-76721281D01*
X110690662Y-76721604D01*
X110701206Y-76723310D01*
X110716801Y-76726152D01*
X110736068Y-76729884D01*
X110747001Y-76732079D01*
X110820812Y-76744341D01*
X110889966Y-76750197D01*
X110954555Y-76749643D01*
X111014676Y-76742678D01*
X111070422Y-76729298D01*
X111089416Y-76722918D01*
X111102193Y-76718707D01*
X111111435Y-76716476D01*
X111115258Y-76716671D01*
G37*
G36*
X109421655Y-76718880D02*
G01*
X109431359Y-76721789D01*
X109444991Y-76726329D01*
X109451285Y-76728528D01*
X109493157Y-76741228D01*
X109535812Y-76749735D01*
X109580296Y-76754061D01*
X109627655Y-76754220D01*
X109678934Y-76750225D01*
X109735180Y-76742091D01*
X109783314Y-76732852D01*
X109806455Y-76728293D01*
X109824744Y-76725277D01*
X109837264Y-76723931D01*
X109843102Y-76724380D01*
X109843345Y-76724610D01*
X109844876Y-76729893D01*
X109847231Y-76741316D01*
X109850072Y-76757131D01*
X109852714Y-76773326D01*
X109856119Y-76794867D01*
X109860370Y-76821304D01*
X109865266Y-76851434D01*
X109870608Y-76884051D01*
X109876195Y-76917953D01*
X109881829Y-76951934D01*
X109887308Y-76984791D01*
X109892433Y-77015320D01*
X109897004Y-77042316D01*
X109900821Y-77064574D01*
X109903683Y-77080892D01*
X109904866Y-77087362D01*
X109907958Y-77104042D01*
X109911850Y-77125440D01*
X109915975Y-77148418D01*
X109918760Y-77164120D01*
X109939843Y-77282862D01*
X109952953Y-77355783D01*
X109957616Y-77381701D01*
X109960802Y-77400791D01*
X109962385Y-77414080D01*
X109962241Y-77422600D01*
X109960243Y-77427380D01*
X109956266Y-77429450D01*
X109950185Y-77429841D01*
X109943963Y-77429644D01*
X109928942Y-77428915D01*
X109914577Y-77427877D01*
X109911067Y-77427542D01*
X109854745Y-77420969D01*
X109805768Y-77413729D01*
X109763519Y-77405600D01*
X109727379Y-77396358D01*
X109696731Y-77385780D01*
X109670958Y-77373642D01*
X109649441Y-77359721D01*
X109631562Y-77343795D01*
X109616706Y-77325638D01*
X109612726Y-77319692D01*
X109609360Y-77314427D01*
X109606450Y-77309632D01*
X109603721Y-77304532D01*
X109600897Y-77298350D01*
X109597704Y-77290310D01*
X109593867Y-77279636D01*
X109589112Y-77265553D01*
X109583164Y-77247284D01*
X109575749Y-77224054D01*
X109566591Y-77195085D01*
X109555416Y-77159604D01*
X109550248Y-77143186D01*
X109540383Y-77111879D01*
X109530824Y-77081602D01*
X109521960Y-77053577D01*
X109514176Y-77029023D01*
X109507860Y-77009163D01*
X109503397Y-76995217D01*
X109502249Y-76991663D01*
X109497312Y-76976192D01*
X109490883Y-76955665D01*
X109483766Y-76932663D01*
X109476763Y-76909766D01*
X109476205Y-76907927D01*
X109463208Y-76865243D01*
X109451601Y-76827442D01*
X109441558Y-76795083D01*
X109433256Y-76768728D01*
X109426868Y-76748936D01*
X109422775Y-76736842D01*
X109419318Y-76726274D01*
X109417628Y-76719411D01*
X109417662Y-76718150D01*
X109421655Y-76718880D01*
G37*
G36*
X110297488Y-76666278D02*
G01*
X110350256Y-76668967D01*
X110402932Y-76673228D01*
X110449371Y-76678446D01*
X110479657Y-76682273D01*
X110502953Y-76685245D01*
X110520138Y-76687816D01*
X110532088Y-76690440D01*
X110539680Y-76693571D01*
X110543793Y-76697663D01*
X110545303Y-76703170D01*
X110545088Y-76710547D01*
X110544025Y-76720247D01*
X110543367Y-76727102D01*
X110542099Y-76741366D01*
X110540131Y-76761810D01*
X110537637Y-76786689D01*
X110534795Y-76814258D01*
X110531780Y-76842770D01*
X110530840Y-76851500D01*
X110526784Y-76889393D01*
X110522179Y-76933037D01*
X110517171Y-76981005D01*
X110511907Y-77031866D01*
X110506531Y-77084191D01*
X110501191Y-77136553D01*
X110496031Y-77187521D01*
X110491199Y-77235666D01*
X110486840Y-77279560D01*
X110483100Y-77317773D01*
X110481290Y-77336577D01*
X110478775Y-77362381D01*
X110476408Y-77385636D01*
X110474322Y-77405125D01*
X110472649Y-77419630D01*
X110471521Y-77427931D01*
X110471238Y-77429285D01*
X110469227Y-77430438D01*
X110463680Y-77431413D01*
X110454069Y-77432220D01*
X110439864Y-77432872D01*
X110420536Y-77433384D01*
X110395553Y-77433766D01*
X110364388Y-77434031D01*
X110326510Y-77434193D01*
X110281390Y-77434264D01*
X110262087Y-77434269D01*
X110222249Y-77434251D01*
X110184922Y-77434197D01*
X110150846Y-77434113D01*
X110120761Y-77434000D01*
X110095408Y-77433864D01*
X110075527Y-77433707D01*
X110061859Y-77433534D01*
X110055143Y-77433346D01*
X110054568Y-77433272D01*
X110054162Y-77429199D01*
X110053050Y-77418301D01*
X110051345Y-77401687D01*
X110049161Y-77380464D01*
X110046611Y-77355741D01*
X110044838Y-77338571D01*
X110041717Y-77308323D01*
X110038024Y-77272439D01*
X110033994Y-77233216D01*
X110029863Y-77192954D01*
X110025867Y-77153948D01*
X110022931Y-77125242D01*
X110019511Y-77091903D01*
X110016029Y-77058198D01*
X110012657Y-77025770D01*
X110009565Y-76996262D01*
X110006926Y-76971316D01*
X110004911Y-76952575D01*
X110004826Y-76951789D01*
X110001657Y-76921752D01*
X109997991Y-76885206D01*
X109993965Y-76843590D01*
X109989719Y-76798345D01*
X109985390Y-76750910D01*
X109983274Y-76727219D01*
X109982229Y-76712412D01*
X109981935Y-76701051D01*
X109982428Y-76695137D01*
X109982671Y-76694748D01*
X109988431Y-76693068D01*
X110000709Y-76690601D01*
X110018109Y-76687557D01*
X110039237Y-76684146D01*
X110062697Y-76680578D01*
X110087094Y-76677063D01*
X110111034Y-76673810D01*
X110133121Y-76671030D01*
X110151961Y-76668933D01*
X110158261Y-76668333D01*
X110199528Y-76665893D01*
X110246592Y-76665231D01*
X110297488Y-76666278D01*
G37*
G36*
X110476235Y-74551031D02*
G01*
X110486562Y-74560883D01*
X110493161Y-74575184D01*
X110494810Y-74586483D01*
X110493926Y-74596919D01*
X110489130Y-74603939D01*
X110481972Y-74608977D01*
X110472969Y-74614642D01*
X110459434Y-74623301D01*
X110443505Y-74633581D01*
X110433188Y-74640283D01*
X110392987Y-74671087D01*
X110358617Y-74707274D01*
X110330157Y-74748705D01*
X110307686Y-74795240D01*
X110291282Y-74846740D01*
X110281025Y-74903064D01*
X110279991Y-74912213D01*
X110279066Y-74925079D01*
X110279630Y-74930549D01*
X110281472Y-74929016D01*
X110284381Y-74920874D01*
X110288145Y-74906517D01*
X110291744Y-74890282D01*
X110295105Y-74874677D01*
X110298008Y-74862171D01*
X110299986Y-74854737D01*
X110300406Y-74853638D01*
X110305227Y-74852750D01*
X110315650Y-74854935D01*
X110330158Y-74859664D01*
X110347237Y-74866413D01*
X110365370Y-74874653D01*
X110375329Y-74879676D01*
X110409333Y-74901359D01*
X110438607Y-74927861D01*
X110462324Y-74958148D01*
X110479654Y-74991188D01*
X110488827Y-75021067D01*
X110492983Y-75058765D01*
X110490656Y-75099362D01*
X110482018Y-75141362D01*
X110471366Y-75173226D01*
X110452351Y-75211353D01*
X110427488Y-75244584D01*
X110397494Y-75272553D01*
X110363084Y-75294896D01*
X110324974Y-75311247D01*
X110283879Y-75321241D01*
X110240514Y-75324514D01*
X110195595Y-75320700D01*
X110185790Y-75318917D01*
X110145947Y-75307768D01*
X110106965Y-75290841D01*
X110070923Y-75269252D01*
X110039895Y-75244117D01*
X110032150Y-75236345D01*
X110005754Y-75203372D01*
X109986479Y-75167599D01*
X109974027Y-75128308D01*
X109968100Y-75084781D01*
X109967908Y-75081263D01*
X109967335Y-75052760D01*
X109969151Y-75028863D01*
X109973940Y-75006599D01*
X109982284Y-74982994D01*
X109991161Y-74962763D01*
X110010529Y-74929586D01*
X110035794Y-74899872D01*
X110065428Y-74875211D01*
X110088573Y-74861495D01*
X110110243Y-74851621D01*
X110130542Y-74844730D01*
X110151626Y-74840420D01*
X110175649Y-74838292D01*
X110204769Y-74837944D01*
X110214424Y-74838118D01*
X110228691Y-74838445D01*
X110229285Y-74882864D01*
X110229730Y-74901566D01*
X110230478Y-74917835D01*
X110231416Y-74929696D01*
X110232232Y-74934701D01*
X110232611Y-74940916D01*
X110228426Y-74941405D01*
X110220416Y-74936397D01*
X110211321Y-74928162D01*
X110202985Y-74920120D01*
X110197193Y-74915077D01*
X110195770Y-74914206D01*
X110194755Y-74917740D01*
X110194206Y-74926527D01*
X110194175Y-74929566D01*
X110198032Y-74948409D01*
X110209400Y-74965258D01*
X110227973Y-74979699D01*
X110233536Y-74982796D01*
X110257291Y-74991723D01*
X110279791Y-74993418D01*
X110300167Y-74988016D01*
X110317549Y-74975648D01*
X110323241Y-74969080D01*
X110330244Y-74958523D01*
X110333750Y-74950355D01*
X110333089Y-74946284D01*
X110332229Y-74946106D01*
X110327941Y-74947495D01*
X110319166Y-74950946D01*
X110316407Y-74952087D01*
X110302843Y-74956104D01*
X110287887Y-74958044D01*
X110273749Y-74957943D01*
X110262639Y-74955837D01*
X110256769Y-74951765D01*
X110256505Y-74951090D01*
X110254180Y-74938275D01*
X110252539Y-74919806D01*
X110251634Y-74897978D01*
X110251515Y-74875086D01*
X110252233Y-74853424D01*
X110253837Y-74835289D01*
X110253944Y-74834501D01*
X110264049Y-74786165D01*
X110280551Y-74738431D01*
X110302652Y-74692851D01*
X110329552Y-74650977D01*
X110360453Y-74614362D01*
X110373880Y-74601422D01*
X110390643Y-74587507D01*
X110409025Y-74574258D01*
X110427384Y-74562665D01*
X110444081Y-74553716D01*
X110457475Y-74548400D01*
X110463567Y-74547362D01*
X110476235Y-74551031D01*
G37*
G36*
X109943029Y-75166429D02*
G01*
X109948349Y-75175974D01*
X109953238Y-75186874D01*
X109968567Y-75216903D01*
X109989594Y-75247109D01*
X110014457Y-75275123D01*
X110040595Y-75298050D01*
X110068789Y-75317557D01*
X110097163Y-75333087D01*
X110128720Y-75346155D01*
X110150313Y-75353407D01*
X110163372Y-75357194D01*
X110175549Y-75359806D01*
X110188802Y-75361442D01*
X110205092Y-75362302D01*
X110226377Y-75362586D01*
X110240030Y-75362574D01*
X110264309Y-75362348D01*
X110282576Y-75361724D01*
X110296794Y-75360474D01*
X110308924Y-75358368D01*
X110320930Y-75355178D01*
X110330857Y-75351996D01*
X110368213Y-75336641D01*
X110402851Y-75316811D01*
X110433234Y-75293583D01*
X110457829Y-75268032D01*
X110465652Y-75257476D01*
X110479277Y-75237395D01*
X110558029Y-75237292D01*
X110636781Y-75237189D01*
X110636781Y-75330894D01*
X110636781Y-75424599D01*
X110722511Y-75424599D01*
X110808241Y-75424599D01*
X110808241Y-75520221D01*
X110808241Y-75615843D01*
X110896961Y-75616917D01*
X110985682Y-75617990D01*
X110986329Y-75711695D01*
X110986977Y-75805399D01*
X111074978Y-75806472D01*
X111162979Y-75807545D01*
X111164048Y-75902171D01*
X111165117Y-75996797D01*
X111249548Y-75997872D01*
X111333980Y-75998947D01*
X111340000Y-76025784D01*
X111349949Y-76084575D01*
X111354204Y-76145430D01*
X111352824Y-76206465D01*
X111345867Y-76265796D01*
X111333392Y-76321539D01*
X111330469Y-76331357D01*
X111310386Y-76383203D01*
X111283592Y-76432104D01*
X111250816Y-76477381D01*
X111212786Y-76518350D01*
X111170233Y-76554330D01*
X111123886Y-76584640D01*
X111074474Y-76608598D01*
X111022727Y-76625522D01*
X111013262Y-76627760D01*
X110992889Y-76631005D01*
X110966560Y-76633287D01*
X110936236Y-76634609D01*
X110903878Y-76634973D01*
X110871445Y-76634380D01*
X110840899Y-76632834D01*
X110814200Y-76630335D01*
X110796279Y-76627523D01*
X110760800Y-76620050D01*
X110722952Y-76611583D01*
X110685697Y-76602808D01*
X110651998Y-76594415D01*
X110638775Y-76590943D01*
X110536692Y-76567601D01*
X110432439Y-76551591D01*
X110327422Y-76543115D01*
X110301836Y-76542214D01*
X110208856Y-76542771D01*
X110114996Y-76549395D01*
X110019212Y-76562213D01*
X109920459Y-76581349D01*
X109863217Y-76594936D01*
X109823593Y-76604857D01*
X109790464Y-76612923D01*
X109762622Y-76619340D01*
X109738859Y-76624309D01*
X109717964Y-76628035D01*
X109698730Y-76630723D01*
X109679946Y-76632574D01*
X109660405Y-76633793D01*
X109638897Y-76634585D01*
X109625965Y-76634907D01*
X109590510Y-76635307D01*
X109561961Y-76634730D01*
X109539306Y-76633137D01*
X109524285Y-76631023D01*
X109467011Y-76616575D01*
X109412912Y-76595041D01*
X109362467Y-76566841D01*
X109316155Y-76532394D01*
X109274455Y-76492119D01*
X109237847Y-76446437D01*
X109206809Y-76395767D01*
X109181821Y-76340529D01*
X109176823Y-76326770D01*
X109162363Y-76273988D01*
X109153984Y-76217726D01*
X109152996Y-76193119D01*
X109413822Y-76193119D01*
X109414512Y-76197230D01*
X109417985Y-76202344D01*
X109426050Y-76212013D01*
X109437710Y-76225107D01*
X109451965Y-76240493D01*
X109461965Y-76250996D01*
X109481247Y-76270621D01*
X109496283Y-76284660D01*
X109508017Y-76293580D01*
X109517391Y-76297849D01*
X109525350Y-76297935D01*
X109532838Y-76294307D01*
X109538981Y-76289178D01*
X109546866Y-76276572D01*
X109548209Y-76267082D01*
X109547524Y-76261014D01*
X109547405Y-76260717D01*
X110367797Y-76260717D01*
X110368292Y-76273350D01*
X110374624Y-76286026D01*
X110381239Y-76292737D01*
X110389293Y-76297052D01*
X110397905Y-76297135D01*
X110408233Y-76292491D01*
X110421430Y-76282623D01*
X110436620Y-76268958D01*
X110458457Y-76248324D01*
X110475121Y-76232303D01*
X110487303Y-76220102D01*
X110495694Y-76210931D01*
X110500985Y-76203997D01*
X110503868Y-76198509D01*
X110505032Y-76193674D01*
X110505195Y-76190377D01*
X110501930Y-76176006D01*
X110492602Y-76166382D01*
X110477911Y-76162029D01*
X110467315Y-76162114D01*
X110461500Y-76165198D01*
X110451563Y-76173016D01*
X110438715Y-76184369D01*
X110424164Y-76198059D01*
X110409120Y-76212889D01*
X110394792Y-76227659D01*
X110382388Y-76241171D01*
X110373120Y-76252228D01*
X110368195Y-76259631D01*
X110367797Y-76260717D01*
X109547405Y-76260717D01*
X109544918Y-76254525D01*
X109539572Y-76246474D01*
X109530664Y-76235720D01*
X109517372Y-76221121D01*
X109507817Y-76210956D01*
X109488394Y-76190896D01*
X109473111Y-76176411D01*
X109461050Y-76166914D01*
X109451294Y-76161816D01*
X109442924Y-76160528D01*
X109435023Y-76162460D01*
X109433375Y-76163202D01*
X109423454Y-76170971D01*
X109416385Y-76181939D01*
X109413822Y-76193119D01*
X109152996Y-76193119D01*
X109151652Y-76159626D01*
X109155335Y-76101326D01*
X109156928Y-76091953D01*
X110800745Y-76091953D01*
X110801086Y-76099046D01*
X110804419Y-76107037D01*
X110811399Y-76116982D01*
X110822678Y-76129941D01*
X110838910Y-76146971D01*
X110845125Y-76153318D01*
X110860930Y-76169109D01*
X110875334Y-76182960D01*
X110887187Y-76193809D01*
X110895344Y-76200593D01*
X110897958Y-76202259D01*
X110911333Y-76203818D01*
X110924053Y-76198011D01*
X110928861Y-76193387D01*
X110933943Y-76183528D01*
X110935839Y-76172734D01*
X110935101Y-76167143D01*
X110932346Y-76160965D01*
X110926764Y-76153171D01*
X110917544Y-76142733D01*
X110903878Y-76128621D01*
X110890980Y-76115757D01*
X110875013Y-76100328D01*
X110860391Y-76086887D01*
X110848306Y-76076477D01*
X110839948Y-76070141D01*
X110837349Y-76068764D01*
X110826924Y-76068880D01*
X110815205Y-76073213D01*
X110805775Y-76080113D01*
X110802743Y-76084699D01*
X110800745Y-76091953D01*
X109156928Y-76091953D01*
X109164999Y-76044470D01*
X109180611Y-75990695D01*
X109183838Y-75982019D01*
X109209271Y-75923511D01*
X109238409Y-75871139D01*
X109272106Y-75823588D01*
X109311218Y-75779548D01*
X109323450Y-75767480D01*
X109354837Y-75738706D01*
X109383988Y-75715106D01*
X109406275Y-75699789D01*
X109958916Y-75699789D01*
X109960712Y-75707879D01*
X109965569Y-75721029D01*
X109972694Y-75737627D01*
X109981290Y-75756058D01*
X109990563Y-75774710D01*
X109999719Y-75791969D01*
X110007962Y-75806220D01*
X110014497Y-75815851D01*
X110017632Y-75818981D01*
X110031718Y-75823241D01*
X110045188Y-75820382D01*
X110054325Y-75812837D01*
X110060117Y-75803221D01*
X110062588Y-75794651D01*
X110062589Y-75794522D01*
X110060797Y-75787433D01*
X110055946Y-75775172D01*
X110048824Y-75759302D01*
X110040219Y-75741383D01*
X110032924Y-75726942D01*
X110449371Y-75726942D01*
X110450541Y-75732626D01*
X110454520Y-75739989D01*
X110462015Y-75749953D01*
X110473729Y-75763440D01*
X110490369Y-75781370D01*
X110493772Y-75784962D01*
X110510372Y-75802370D01*
X110522578Y-75814786D01*
X110531467Y-75823024D01*
X110538117Y-75827896D01*
X110543603Y-75830213D01*
X110549003Y-75830787D01*
X110554182Y-75830524D01*
X110567635Y-75827592D01*
X110576919Y-75820205D01*
X110578087Y-75818706D01*
X110583798Y-75806617D01*
X110583372Y-75797684D01*
X110579743Y-75791265D01*
X110571492Y-75780523D01*
X110559679Y-75766729D01*
X110545369Y-75751152D01*
X110537994Y-75743484D01*
X110521422Y-75726657D01*
X110509206Y-75714776D01*
X110500226Y-75706992D01*
X110493360Y-75702454D01*
X110487488Y-75700313D01*
X110481489Y-75699718D01*
X110480274Y-75699710D01*
X110465052Y-75702823D01*
X110454352Y-75711321D01*
X110449517Y-75724024D01*
X110449371Y-75726942D01*
X110032924Y-75726942D01*
X110030920Y-75722976D01*
X110021715Y-75705642D01*
X110013392Y-75690941D01*
X110006739Y-75680434D01*
X110002590Y-75675707D01*
X109988481Y-75671851D01*
X109975268Y-75674447D01*
X109964908Y-75682415D01*
X109959359Y-75694677D01*
X109958916Y-75699789D01*
X109406275Y-75699789D01*
X109413007Y-75695162D01*
X109443994Y-75677357D01*
X109458492Y-75669958D01*
X109493044Y-75653829D01*
X109523531Y-75641834D01*
X109552177Y-75633204D01*
X109581207Y-75627168D01*
X109583087Y-75626859D01*
X109597929Y-75624316D01*
X109606712Y-75621950D01*
X109611252Y-75618671D01*
X109613364Y-75613392D01*
X109614336Y-75608121D01*
X109616214Y-75598977D01*
X109619659Y-75584087D01*
X109624199Y-75565414D01*
X109629368Y-75544923D01*
X109630061Y-75542228D01*
X109645708Y-75492837D01*
X110038665Y-75492837D01*
X110042047Y-75507795D01*
X110052006Y-75518285D01*
X110058602Y-75521456D01*
X110067710Y-75523757D01*
X110075476Y-75521834D01*
X110078918Y-75520095D01*
X110084492Y-75515889D01*
X110094472Y-75507187D01*
X110107612Y-75495118D01*
X110122666Y-75480813D01*
X110128499Y-75475152D01*
X110145665Y-75458087D01*
X110157639Y-75445331D01*
X110165206Y-75435911D01*
X110169148Y-75428855D01*
X110170250Y-75423337D01*
X110166647Y-75410554D01*
X110157376Y-75399898D01*
X110144741Y-75393562D01*
X110138041Y-75392699D01*
X110132303Y-75393464D01*
X110125937Y-75396303D01*
X110117879Y-75402029D01*
X110107067Y-75411458D01*
X110092440Y-75425402D01*
X110082035Y-75435637D01*
X110065272Y-75452396D01*
X110053447Y-75464778D01*
X110045718Y-75473895D01*
X110041241Y-75480859D01*
X110039171Y-75486785D01*
X110038665Y-75492784D01*
X110038665Y-75492837D01*
X109645708Y-75492837D01*
X109645725Y-75492784D01*
X109650437Y-75477912D01*
X109677330Y-75416969D01*
X109710306Y-75360070D01*
X109748931Y-75307882D01*
X109792770Y-75261074D01*
X109837483Y-75223224D01*
X109854486Y-75210947D01*
X109872872Y-75198534D01*
X109891319Y-75186779D01*
X109908506Y-75176475D01*
X109923111Y-75168414D01*
X109933811Y-75163390D01*
X109939220Y-75162173D01*
X109943029Y-75166429D01*
G37*
%TO.C,L1*%
D13*
X93339000Y-71782400D02*
X86239000Y-71782400D01*
X93339000Y-78382400D02*
X86239000Y-78382400D01*
%TO.C,SW1*%
D17*
X86000000Y-80050000D02*
X86000000Y-81390000D01*
X86000000Y-80050000D02*
X98000000Y-80050000D01*
X86000000Y-84310000D02*
X86000000Y-85650000D01*
X88440000Y-80820000D02*
X95810000Y-80820000D01*
X88440000Y-81870000D02*
X88440000Y-80820000D01*
X88440000Y-84880000D02*
X88440000Y-83830000D01*
X88950000Y-81330000D02*
X92000000Y-81330000D01*
X88950000Y-81720000D02*
X88950000Y-81330000D01*
X88950000Y-84370000D02*
X88950000Y-83980000D01*
X89450000Y-81330000D02*
X89450000Y-81810000D01*
X89450000Y-83890000D02*
X89450000Y-84370000D01*
X89960000Y-82250000D02*
X89960000Y-81330000D01*
X89960000Y-84370000D02*
X89960000Y-83450000D01*
X90480000Y-81330000D02*
X90480000Y-84370000D01*
X90970000Y-82380000D02*
X90970000Y-81330000D01*
X90970000Y-84370000D02*
X90970000Y-83320000D01*
X91460000Y-81330000D02*
X91460000Y-81860000D01*
X91460000Y-83840000D02*
X91460000Y-84370000D01*
X92000000Y-81720000D02*
X92000000Y-81330000D01*
X92000000Y-84370000D02*
X88950000Y-84370000D01*
X92000000Y-84370000D02*
X92000000Y-83980000D01*
X95810000Y-80820000D02*
X95810000Y-82060000D01*
X95810000Y-83640000D02*
X95810000Y-84880000D01*
X95810000Y-84880000D02*
X88440000Y-84880000D01*
X98000000Y-80050000D02*
X98000000Y-81390000D01*
X98000000Y-84310000D02*
X98000000Y-85650000D01*
X98000000Y-85650000D02*
X86000000Y-85650000D01*
D18*
X85930000Y-85750000D02*
G75*
G02*
X85870000Y-85750000I-30000J0D01*
G01*
X85870000Y-85750000D02*
G75*
G02*
X85930000Y-85750000I30000J0D01*
G01*
%TO.C,D2*%
D13*
X82743200Y-63296800D02*
X82743200Y-67626800D01*
X82743200Y-67626800D02*
X82953200Y-67626800D01*
X82953200Y-63296800D02*
X82743200Y-63296800D01*
X85303200Y-63296800D02*
X85093200Y-63296800D01*
X85303200Y-67626800D02*
X85093200Y-67626800D01*
X85303200Y-67626800D02*
X85303200Y-63296800D01*
D14*
X84123200Y-69461800D02*
G75*
G02*
X83923200Y-69461800I-100000J0D01*
G01*
X83923200Y-69461800D02*
G75*
G02*
X84123200Y-69461800I100000J0D01*
G01*
%TO.C,R2*%
D15*
X96002064Y-65390000D02*
X95547936Y-65390000D01*
X96002064Y-66860000D02*
X95547936Y-66860000D01*
%TO.C,R4*%
X91463864Y-60428200D02*
X91009736Y-60428200D01*
X91463864Y-61898200D02*
X91009736Y-61898200D01*
%TO.C,R3*%
X86895000Y-67130664D02*
X86895000Y-66676536D01*
X88365000Y-67130664D02*
X88365000Y-66676536D01*
%TO.C,J1*%
X102247500Y-60080000D02*
X113687500Y-60080000D01*
X102247500Y-70480000D02*
X102247500Y-60080000D01*
X104367500Y-70480000D02*
X104367500Y-60080000D01*
X110567500Y-70480000D02*
X110567500Y-60080000D01*
X113067500Y-70480000D02*
X113067500Y-60080000D01*
X113687500Y-60080000D02*
X113687500Y-67520000D01*
X113687500Y-68120000D02*
X113687500Y-70480000D01*
X113687500Y-70480000D02*
X102247500Y-70480000D01*
X113687500Y-67820000D02*
X114297500Y-67380000D01*
X114297500Y-68260000D01*
X113687500Y-67820000D01*
G36*
X114297500Y-68260000D02*
G01*
X113687500Y-67820000D01*
X114297500Y-67380000D01*
X114297500Y-68260000D01*
G37*
%TO.C,U1*%
D19*
X93535500Y-68851739D02*
X93535500Y-69527461D01*
X93535500Y-70764400D02*
X95338900Y-70764400D01*
X95338900Y-67614800D02*
X93535500Y-67614800D01*
%TO.C,Q1*%
D15*
X89626000Y-64060800D02*
X89676000Y-64060800D01*
X89626000Y-65580800D02*
X89626000Y-64060800D01*
X90626000Y-65580800D02*
X89626000Y-65580800D01*
X90796000Y-64060800D02*
X91576000Y-64060800D01*
X92696000Y-64060800D02*
X92746000Y-64060800D01*
X92746000Y-64060800D02*
X92746000Y-65580800D01*
X92746000Y-65580800D02*
X91746000Y-65580800D01*
X91566000Y-63520800D02*
X91236000Y-63760800D01*
X91236000Y-63280800D01*
X91566000Y-63520800D01*
G36*
X91566000Y-63520800D02*
G01*
X91236000Y-63760800D01*
X91236000Y-63280800D01*
X91566000Y-63520800D01*
G37*
%TO.C,C1*%
X89587400Y-69400052D02*
X89587400Y-68877548D01*
X91057400Y-69400052D02*
X91057400Y-68877548D01*
%TO.C,R1*%
X98626664Y-63120600D02*
X98172536Y-63120600D01*
X98626664Y-64590600D02*
X98172536Y-64590600D01*
%TO.C,J4*%
X70455000Y-52237500D02*
X77895000Y-52237500D01*
X70455000Y-63677500D02*
X70455000Y-52237500D01*
X78495000Y-52237500D02*
X80855000Y-52237500D01*
X80855000Y-52237500D02*
X80855000Y-63677500D01*
X80855000Y-52857500D02*
X70455000Y-52857500D01*
X80855000Y-55357500D02*
X70455000Y-55357500D01*
X80855000Y-61557500D02*
X70455000Y-61557500D01*
X80855000Y-63677500D02*
X70455000Y-63677500D01*
X78195000Y-52237500D02*
X77755000Y-51627500D01*
X78635000Y-51627500D01*
X78195000Y-52237500D01*
G36*
X78195000Y-52237500D02*
G01*
X77755000Y-51627500D01*
X78635000Y-51627500D01*
X78195000Y-52237500D01*
G37*
%TO.C,C2*%
X98048400Y-68732452D02*
X98048400Y-67309948D01*
X99868400Y-68732452D02*
X99868400Y-67309948D01*
%TD*%
M02*
